<svg xmlns="http://www.w3.org/2000/svg" width="261.793" height="78.792" viewBox="0 0 261.793 78.792">
  <g id="Group_415861" data-name="Group 415861" transform="translate(-590 -306.982)">
    <g id="Group_415855" data-name="Group 415855" transform="translate(590 306.982)">
      <g id="Group_415854" data-name="Group 415854">
        <path id="Path_227640" data-name="Path 227640" d="M39.15,25.106h5.943v-1.4H25.232v1.4h5.955V42.1H13.913v-17h5.943V23.71H.006v1.413H5.927V61.9H0v1.373H19.851v-1.4H13.924V43.544H31.192V61.886H25.237v1.379H45.1V61.858H39.15Z" transform="translate(0 -10.365)" fill-rule="evenodd"/>
        <path id="Path_227641" data-name="Path 227641" d="M195.12,48.091a7.755,7.755,0,0,1-2.82,3.619,6.013,6.013,0,0,1-4.638.647,4.333,4.333,0,0,1-3.343-2.944,11.384,11.384,0,0,1-.619-4.041q-.034-14.791-.017-29.588c0-.169.017-.338.034-.568h11.96V13.8H183.672V1.14a7.411,7.411,0,0,1-7.919.422v12.27H169.81v1.435h5.972v.754q0,14.183.006,28.361a9.385,9.385,0,0,0,1.981,5.735,10.475,10.475,0,0,0,4.142,3.231,11.418,11.418,0,0,0,6.641.749,9.853,9.853,0,0,0,5.414-2.521,10.206,10.206,0,0,0,2.274-3.253,21.42,21.42,0,0,0,1.036-2.741c-.535-.135-.923-.236-1.272-.326-.3.985-.557,1.925-.884,2.837" transform="translate(-74.236 -0.498)" fill-rule="evenodd"/>
        <path id="Path_227642" data-name="Path 227642" d="M148.734,43.244a14.882,14.882,0,0,0-4.61-3.157c-1.413-.681-2.9-1.2-4.373-1.739-1.57-.58-3.18-1.064-4.745-1.66-1.334-.507-2.628-1.109-3.928-1.7a4.328,4.328,0,0,1-1.936-1.688,6.325,6.325,0,0,1-.18-6.726A7.452,7.452,0,0,1,132.7,23.4a10.534,10.534,0,0,1,6.18-.523,7.425,7.425,0,0,1,4.733,3.248,16.264,16.264,0,0,1,2.634,5.837c.236.979.27,1,1.21.855V22.561a2.74,2.74,0,0,0-.962.18,2.834,2.834,0,0,1-2.837.225,22.657,22.657,0,0,0-3.349-1.283A12.728,12.728,0,0,0,126.491,26.6a9.324,9.324,0,0,0-1.013,1.863,13.621,13.621,0,0,0-.675,7.953,9.568,9.568,0,0,0,2.431,4.936,11.812,11.812,0,0,0,3.608,2.386,45.63,45.63,0,0,0,5.246,1.981,33.286,33.286,0,0,1,5.375,1.936,7.383,7.383,0,0,1,2.651,2.24,8.767,8.767,0,0,1,1.019,2.2,8.455,8.455,0,0,1,.219,3.7,6.2,6.2,0,0,1-2.994,4.835,8.33,8.33,0,0,1-4.6,1.143,11.507,11.507,0,0,1-7.142-2.5,6.864,6.864,0,0,1-.585-.467,16.843,16.843,0,0,1-3.338-4.508.62.62,0,0,0-.405-.343c-.76-.034-1.525-.017-2.358-.017v7.823c.456.023.9.163,1.266-.405a1.7,1.7,0,0,1,1.064-.608,4.284,4.284,0,0,1,1.8.045c1.368.394,2.7.906,4.047,1.373a14.936,14.936,0,0,0,11.791-.338,13.087,13.087,0,0,0,6.551-6.473,11.959,11.959,0,0,0,.895-6.619,9.94,9.94,0,0,0-2.606-5.476" transform="translate(-54.179 -9.306)" fill-rule="evenodd"/>
        <g id="Group_415853" data-name="Group 415853" transform="translate(122.144 11.876)">
          <path id="Path_227643" data-name="Path 227643" d="M256.744,41.874v-.011a19.464,19.464,0,0,0-.608-4.9,20.752,20.752,0,0,0-6.349-10.536,22.388,22.388,0,0,0-4.21-3.006,18.647,18.647,0,0,0-4.514-1.773,16.289,16.289,0,0,0-8.364,0,18.643,18.643,0,0,0-4.514,1.773,22.208,22.208,0,0,0-4.21,3.006,20.813,20.813,0,0,0-6.349,10.536,19.463,19.463,0,0,0-.608,4.9v.011h0a19.743,19.743,0,0,0,.186,2.685,21.2,21.2,0,0,0,6.563,12.607,19.3,19.3,0,0,0,4.6,3.281,19.714,19.714,0,0,0,4.013,1.6,17.091,17.091,0,0,0,8.994,0,19.586,19.586,0,0,0,4.013-1.6,19.3,19.3,0,0,0,4.6-3.281,21.219,21.219,0,0,0,6.562-12.607,17.335,17.335,0,0,0,.2-2.685ZM247.778,50.4a18.811,18.811,0,0,1-1.784,5.82,8.894,8.894,0,0,1-5.015,4.469,13.868,13.868,0,0,1-8.195,0,8.914,8.914,0,0,1-5.015-4.469,18.766,18.766,0,0,1-1.784-5.82,50.107,50.107,0,0,1-.551-7.339c0-.051.006-.3.011-.619.011-.619.034-2.572.04-3.034a34.721,34.721,0,0,1,1.266-9.3,11.4,11.4,0,0,1,2.989-5.184,8.217,8.217,0,0,1,3.962-2.144,15.976,15.976,0,0,1,6.371,0,8.171,8.171,0,0,1,3.962,2.144,11.43,11.43,0,0,1,2.989,5.184,34.751,34.751,0,0,1,1.266,9.3c.006.462.028,2.415.039,3.034.006.315.011.563.011.619A51.648,51.648,0,0,1,247.778,50.4Z" transform="translate(-217.018 -21.1)"/>
          <g id="Group_415852" data-name="Group 415852" transform="translate(7.238 4.661)">
            <path id="Path_227644" data-name="Path 227644" d="M253.36,77.62Z" transform="translate(-240.144 -50.47)" fill="none"/>
            <path id="Path_227645" data-name="Path 227645" d="M265.776,77.567a.021.021,0,0,0-.006-.017.021.021,0,0,1,.006.017Z" transform="translate(-245.57 -50.439)" fill="none"/>
            <path id="Path_227646" data-name="Path 227646" d="M250.266,81.727c0-.006-.006-.011-.006-.017A.021.021,0,0,0,250.266,81.727Z" transform="translate(-238.789 -52.258)" fill="none"/>
            <path id="Path_227647" data-name="Path 227647" d="M260.37,76.16Z" transform="translate(-243.209 -49.831)" fill="none"/>
            <path id="Path_227648" data-name="Path 227648" d="M253.364,55.973a7.523,7.523,0,0,0-.642-1.385c-.917-1.553-2.707-2.538-4.1-3.63a4.789,4.789,0,0,1-.642-.585,2.268,2.268,0,0,1-.276-.371,1.711,1.711,0,0,1-.2-.45,1.658,1.658,0,0,1-.068-.49,2.527,2.527,0,0,1,.045-.467A25.689,25.689,0,0,1,249,44.834a6.968,6.968,0,0,0,.467-2.268c0-.253-.017-.507-.034-.76a23.287,23.287,0,0,0-.529-2.837.1.1,0,0,0-.141-.068,27.044,27.044,0,0,1-4.114,1.452,35.336,35.336,0,0,1-4.857.968.1.1,0,0,0-.09.124c.045.186.1.366.158.546,0,.006.006.011.006.017a4.895,4.895,0,0,0,.979,1.711,3.162,3.162,0,0,0,2.173,1.036c.141.006.281.011.416.006a6.371,6.371,0,0,0,1.525-.231,7.6,7.6,0,0,0,1.818-.765c.473-.276,1.013-.6,1.165-1.159.1-.366-.174-.507-.507-.473a2.383,2.383,0,0,0-.85.231,4.606,4.606,0,0,0-.867.49.336.336,0,0,1-.084.051.1.1,0,0,1-.124-.163h0a4.084,4.084,0,0,1,2.206-1.081c.844-.079,1.165.383,1.092.8a2.967,2.967,0,0,1-.974,1.559,5.55,5.55,0,0,1-1.2.867,8.544,8.544,0,0,1-3.765.991,3.284,3.284,0,0,1-1-.073,1.855,1.855,0,0,1-.422-.129,4.623,4.623,0,0,0,.923.878c.332.276.675.535,1.019.8l.343.259.343.259c.225.169.467.332.7.512a5.75,5.75,0,0,1,.7.6,2.638,2.638,0,0,1,.31.383c.022.034.045.073.067.107a1.089,1.089,0,0,1,.062.113,1.9,1.9,0,0,1,.1.248,2.006,2.006,0,0,1,.062.265,2.105,2.105,0,0,1,.023.259,2.791,2.791,0,0,1-.045.5,4.779,4.779,0,0,1-.281.884c-.113.276-.236.546-.355.8-.028.068-.056.129-.084.191l-.084.2c-.056.129-.113.265-.169.4-.225.529-.45,1.064-.67,1.593l-.011.023-.011.023-.017.062-.034.09c-.022.062-.045.124-.062.186s-.039.124-.056.191-.034.129-.045.2a6.349,6.349,0,0,0-.113.8,7.906,7.906,0,0,0-.011.816,6.706,6.706,0,0,0,.079.816,6.986,6.986,0,0,0,.163.788s.7,2.977.777,3.2c.248.726,2.195,1.469,5.2.664s4.317-2.42,4.17-3.169c-.039-.2-.957-3.276-.957-3.276C253.443,56.215,253.409,56.091,253.364,55.973Z" transform="translate(-234.171 -33.539)" fill="none"/>
            <path id="Path_227649" data-name="Path 227649" d="M243.005,48.04a8.524,8.524,0,0,0,3.765-.991,5.9,5.9,0,0,0,1.2-.867,2.955,2.955,0,0,0,.974-1.559c.068-.411-.253-.872-1.092-.8a4.039,4.039,0,0,0-2.206,1.081h0a.1.1,0,0,0,.124.163.818.818,0,0,0,.084-.051,4.277,4.277,0,0,1,.867-.49,2.509,2.509,0,0,1,.85-.231c.332-.028.608.107.507.473a2.214,2.214,0,0,1-1.165,1.159,7.6,7.6,0,0,1-1.818.765,6.33,6.33,0,0,1-1.525.231c-.141.006-.281,0-.417-.006a3.186,3.186,0,0,1-2.173-1.036,4.81,4.81,0,0,1-.979-1.711c0-.006-.006-.011-.006-.017.174.512.3,1.041.484,1.553a7.149,7.149,0,0,0,1.114,2.133,1.945,1.945,0,0,0,.422.129A3.368,3.368,0,0,0,243.005,48.04Z" transform="translate(-234.304 -35.692)" fill="#eb2027"/>
            <path id="Path_227650" data-name="Path 227650" d="M253,54.077a.1.1,0,0,1-.079-.068c-.135-.433-.276-.867-.405-1.295q-.464-1.511-.912-3.034Q251,47.6,250.423,45.505a.481.481,0,0,1,.068-.4.938.938,0,0,0,.135-.777.921.921,0,0,0-.332-.5.369.369,0,0,1-.118-.433.953.953,0,0,0,.039-.6.935.935,0,0,0-.507-.608.474.474,0,0,1-.259-.31c-.383-1.469-.76-2.944-1.12-4.424-.248-1.024-.5-2.054-.726-3.084-.09-.4-.18-.8-.27-1.2a.109.109,0,0,1,.034-.1,4.121,4.121,0,0,0,1.2-1.373,1.059,1.059,0,0,0,.068-.169.59.59,0,0,0-.118-.613c-.326-.338-1.126-.225-2.476-.017a17.041,17.041,0,0,0-2.69.675c-.445.163-1.739.653-1.767,1.131s.749.433,2.2.118a.353.353,0,0,1,.039-.011.221.221,0,0,1,.146.417c-.011.006-.017.006-.028.011a30.209,30.209,0,0,1-4.722,1.407,20.592,20.592,0,0,1-2.493.321c-1.086-.062-.743-.647-.366-1.013.062-.056.13-.113.2-.169l.006-.006a15.374,15.374,0,0,1,4.835-2.533c.366-.124,1.233-.371,1.328-.4a27.262,27.262,0,0,1,4.964-.878c.287-.028.518-.056.523-.253s-.27-.253-.5-.293H247.7a28.141,28.141,0,0,0-8.836,1.188c-6.669,2.127-8.96,4.373-8.988,5.2a1.037,1.037,0,0,0,.49.9,3.689,3.689,0,0,0,1.66.535.106.106,0,0,1,.084.068c.118.371.236.743.349,1.114q.464,1.511.912,3.034c.428,1.458.839,2.927,1.244,4.39a.481.481,0,0,1-.067.4.947.947,0,0,0-.135.782.922.922,0,0,0,.332.5.369.369,0,0,1,.118.433.953.953,0,0,0-.039.6.935.935,0,0,0,.506.608.474.474,0,0,1,.259.31q.549,2.1,1.064,4.21c.248,1.024.5,2.054.726,3.084.1.445.2.884.3,1.328a.109.109,0,0,1-.034.1c-.934.749-1.4,1.486-1.238,2.1.428,1.593,4.97,1.762,10.142.377s9.022-3.8,8.6-5.4C254.959,54.662,254.182,54.263,253,54.077Zm-14.149-.917c-.006.3,0,.608.022.912a8.688,8.688,0,0,0,.118.917l.045.231.045.214.1.422c.079.366.158.737.236,1.1a.1.1,0,0,1-.051.113c-.152.084-.3.169-.445.253a.1.1,0,0,1-.146-.056c-.084-.265-.169-.535-.248-.8q-.464-1.511-.912-3.034-.608-2.085-1.182-4.176a.481.481,0,0,1,.067-.4.938.938,0,0,0,.135-.777.922.922,0,0,0-.332-.5.369.369,0,0,1-.118-.433.953.953,0,0,0,.039-.6.935.935,0,0,0-.507-.608.473.473,0,0,1-.259-.31c-.383-1.469-.76-2.944-1.12-4.424-.248-1.024-.5-2.054-.726-3.084-.051-.225-.1-.456-.152-.681a.1.1,0,0,1,.1-.124l.529-.017a.105.105,0,0,1,.1.068l.27.827.129.411.068.208.034.1.039.113c.051.152.1.293.158.439l.09.214c.017.034.028.073.045.107l.051.107a8.464,8.464,0,0,0,.428.8l.056.1a.906.906,0,0,0,.062.1c.04.062.079.129.124.191.084.124.169.253.264.371s.186.242.281.36.2.231.31.343.22.22.332.326l.18.152c.017.011.028.028.045.039l.045.034.1.073a.994.994,0,0,0,.1.068l.09.062.174.124c.118.084.236.163.355.248l.7.5.355.253.355.253c.242.169.478.326.7.5.113.084.22.169.326.253a3.321,3.321,0,0,1,.293.27,1.629,1.629,0,0,1,.388.591,1.343,1.343,0,0,1,.011.687,4.068,4.068,0,0,1-.248.754c-.107.253-.231.507-.36.771-.028.068-.062.135-.09.2l-.09.2c-.056.129-.118.265-.18.394-.242.523-.478,1.047-.726,1.57l-.011.023-.011.028-.022.056-.045.107c-.034.073-.056.146-.084.22l-.039.113c-.011.039-.023.073-.034.113-.022.073-.045.146-.062.225a7.263,7.263,0,0,0-.174.9A4.024,4.024,0,0,0,238.851,53.16Zm2.5,5.673c0,.006.006.011.006.017A.021.021,0,0,1,241.35,58.833Zm8.735-2.324h0a.021.021,0,0,0-.006-.017A.021.021,0,0,1,250.085,56.509Zm.062-1.058c.146.749-1.165,2.364-4.171,3.169s-4.953.062-5.2-.664c-.079-.231-.777-3.2-.777-3.2a7.528,7.528,0,0,1-.163-.788c-.039-.27-.062-.54-.079-.816a7.941,7.941,0,0,1,.011-.816,6.227,6.227,0,0,1,.113-.8c.011-.068.034-.129.045-.2a1.917,1.917,0,0,1,.056-.191,1.8,1.8,0,0,1,.062-.186l.034-.09.017-.045.011-.022.011-.023c.219-.535.445-1.064.67-1.593.056-.135.113-.265.169-.4l.084-.2c.028-.068.056-.129.084-.191.118-.259.242-.523.355-.8a4.765,4.765,0,0,0,.281-.884,2.381,2.381,0,0,0,.045-.5,1.992,1.992,0,0,0-.023-.259,2.246,2.246,0,0,0-.062-.265,1.917,1.917,0,0,0-.1-.248.719.719,0,0,0-.062-.113c-.022-.034-.045-.073-.068-.107a2.96,2.96,0,0,0-.31-.383,5.748,5.748,0,0,0-.7-.6c-.236-.18-.478-.343-.7-.512l-.343-.259-.343-.259c-.343-.259-.687-.518-1.019-.8a4.62,4.62,0,0,1-.923-.878,7.419,7.419,0,0,1-1.114-2.133c-.186-.512-.31-1.041-.484-1.553a4.638,4.638,0,0,1-.158-.546.1.1,0,0,1,.09-.124,34.514,34.514,0,0,0,4.857-.968,26.693,26.693,0,0,0,4.227-1.5,23.753,23.753,0,0,1,.557,2.955c.017.253.034.507.034.76a6.827,6.827,0,0,1-.467,2.268,25.324,25.324,0,0,0-1.508,3.76,2.534,2.534,0,0,0-.045.467,1.832,1.832,0,0,0,.068.49,1.911,1.911,0,0,0,.2.45,3.185,3.185,0,0,0,.276.371,5.163,5.163,0,0,0,.642.585c1.39,1.092,3.174,2.077,4.1,3.63a7.539,7.539,0,0,1,.642,1.385c.039.118.079.242.113.36C249.184,52.175,250.108,55.253,250.147,55.45Zm-1.435-11.673a.369.369,0,0,1,.118.433.953.953,0,0,0-.039.6.935.935,0,0,0,.506.608.474.474,0,0,1,.259.31q.549,2.1,1.064,4.21c.248,1.024.5,2.054.726,3.084.062.27.124.546.186.816a.1.1,0,0,1-.1.124c-.163,0-.338,0-.512.006a.111.111,0,0,1-.1-.068l-.028-.09c-.085-.259-.169-.512-.248-.771s-.163-.512-.248-.771l-.034-.1c-.011-.034-.022-.068-.034-.107l-.034-.1-.039-.1c-.051-.135-.1-.27-.163-.4-.113-.265-.242-.518-.377-.765s-.287-.49-.445-.726a7.4,7.4,0,0,0-1.114-1.306c-.107-.1-.219-.191-.338-.281l-.09-.068L247.6,48.3l-.022-.017-.039-.028-.163-.118c-.22-.152-.439-.31-.659-.467l-1.323-.94c-.225-.158-.445-.3-.647-.461a4.789,4.789,0,0,1-.557-.5,1.871,1.871,0,0,1-.208-.276,1.3,1.3,0,0,1-.129-.287,1.112,1.112,0,0,1-.039-.31,1.761,1.761,0,0,1,.034-.338,2.684,2.684,0,0,1,.1-.349q.059-.177.135-.355c.1-.236.214-.473.332-.72.422-.912.906-1.829,1.255-2.78a7.333,7.333,0,0,0,.326-3.174,25.345,25.345,0,0,0-.456-2.876.092.092,0,0,1,.051-.107c.062-.034.146-.084.174-.1.107-.062.214-.118.315-.18a.1.1,0,0,1,.146.056c.073.231.146.462.214.687q.464,1.511.912,3.034c.428,1.458.839,2.927,1.244,4.39a.481.481,0,0,1-.068.4.947.947,0,0,0-.135.782A.881.881,0,0,0,248.712,43.777Z" transform="translate(-229.879 -29.381)"/>
            <path id="Path_227651" data-name="Path 227651" d="M257.331,69.6a7.628,7.628,0,0,0-2.5.1,8.9,8.9,0,0,0-2.184.737,3.8,3.8,0,0,0-1.086.777.478.478,0,0,0-.118.332c.045.276.388.371.653.394a4.154,4.154,0,0,0,.985-.073,10.857,10.857,0,0,0,1.469-.326l.479-.152c1.12-.394,1.553-.8,1.418-.962-.281-.349-1.683.056-1.807.1a.123.123,0,0,0-.084.141.116.116,0,0,0,.135.084c.124-.017.433-.113.777-.152a1.527,1.527,0,0,1,.225-.006c.017,0,.051.006.079.006s.045.039.022.056-.034.028-.045.039c-.051.034-.118.073-.18.107s-.141.062-.208.09c-.146.056-.3.113-.45.158s-.31.1-.462.135-.309.079-.461.113c-.315.062-.636.118-.951.158a3.359,3.359,0,0,1-.467.045c-.63,0-.36-.3-.107-.473a2.735,2.735,0,0,1,.4-.214,8.179,8.179,0,0,1,1.8-.608c.31-.062.754-.152,1.058-.18a2.333,2.333,0,0,1,1.57.236.254.254,0,0,1,.079.073.1.1,0,0,1,.022.068.158.158,0,0,1-.011.084,1.279,1.279,0,0,1-.411.5,4.734,4.734,0,0,1-1.075.619,9.075,9.075,0,0,1-1.767.6c-.3.068-.608.124-.917.163a7.821,7.821,0,0,1-1.086.073,1.633,1.633,0,0,1-1.041-.242.706.706,0,0,1-.236-.563,20.828,20.828,0,0,1,.844-2.471,12.779,12.779,0,0,0,.546-2.066,10.157,10.157,0,0,0,.124-1.84c-.006-.3-.022-.613-.056-.917-.017-.152-.034-.3-.056-.456-.006-.045-.034-.191-.051-.3a.151.151,0,0,0-.191-.113.154.154,0,0,0-.124.175c.017.107.045.248.051.293.017.146.034.293.045.445.023.3.034.591.028.889s-.022.6-.051.889-.079.591-.141.884a19.985,19.985,0,0,1-.822,2.5c-.951,2.071-.946,2.679-.878,2.938.186.7,1.717.884,2.719.777a10.091,10.091,0,0,0,1.626-.3,9.941,9.941,0,0,0,1.114-.371,6.931,6.931,0,0,0,1.582-.827,5.009,5.009,0,0,0,1-.923c.141-.191.366-.653-.045-.94A3.116,3.116,0,0,0,257.331,69.6Zm-5.4,1.829Zm3.945-.816Z" transform="translate(-238.712 -44.275)" fill="#eb2027"/>
          </g>
        </g>
        <path id="Path_227652" data-name="Path 227652" d="M359.652,61.858V23.71H345.79v1.4h5.938V61.858H345.8v.287h0v.6h0v.523h19.879V61.858Z" transform="translate(-151.17 -10.365)" fill-rule="evenodd"/>
        <path id="Path_227653" data-name="Path 227653" d="M426.2,51.584c-.394.006-.585-.056-.709-.478-.36-1.221-.794-2.42-1.2-3.63L421.021,37.6q-1.79-5.369-3.585-10.733-1.933-5.791-3.855-11.589c-.63-1.9-1.278-3.788-1.914-5.685q-1.5-4.508-2.983-9.028c-.09-.276-.208-.366-.484-.355s-.5,0-.6.355c-.259.861-.568,1.711-.867,2.561-.906,2.589-1.818,5.178-2.713,7.773-1.424,4.137-2.831,8.274-4.26,12.41-1.07,3.1-2.156,6.185-3.225,9.281-1.261,3.647-2.5,7.305-3.765,10.953-.872,2.527-1.767,5.049-2.617,7.587-.129.388-.287.445-.67.456H385.31V53h12.32V51.584h-6.275c.028-.073,2.459-6.985,3.332-9.5a.617.617,0,0,1,.7-.473q9.152.017,18.3,0a.638.638,0,0,1,.72.512c.788,2.392,2.977,8.932,3.152,9.461h-5.493v.039h0v1.092h0V53H430.24V51.59H426.2Zm-30.837-11.42q4.762-14.048,9.484-27.984c.034-.006.073-.006.107-.011q4.382,13.964,8.786,27.989H395.368Z" transform="translate(-168.447 -0.091)" fill="#eb2027" fill-rule="evenodd"/>
        <path id="Path_227654" data-name="Path 227654" d="M98.187,61.863V23.72H84.33v1.407h.017v.011h5.932V61.863H84.33v1.413H104.2V61.863Z" transform="translate(-36.867 -10.37)" fill-rule="evenodd"/>
        <path id="Path_227655" data-name="Path 227655" d="M93.31,4.88a4.88,4.88,0,1,1,9.759,0,4.881,4.881,0,0,1-9.759,0Z" transform="translate(-40.793 0)"/>
        <path id="Path_227656" data-name="Path 227656" d="M354.78,4.88a4.88,4.88,0,0,1,9.759,0,4.881,4.881,0,0,1-9.759,0Z" transform="translate(-155.1 0)"/>
        <path id="Path_227657" data-name="Path 227657" d="M317.743,28.1v-.028a7.574,7.574,0,0,0-.81-3.231,7.639,7.639,0,0,0-2.656-2.915,7.284,7.284,0,0,0-3.3-1.159,11.1,11.1,0,0,0-4.739.568,9.811,9.811,0,0,0-2.662,1.531,13.48,13.48,0,0,0-2.482,2.673,22.077,22.077,0,0,0-2.229,4c-.022.045-.039.1-.062.141s-.039.068-.056.107l-.118-.034V22.4H284.75V23.81h5.96V60.557h-5.96v1.407h19.873V60.551h-5.972v-.445q0-13.111.006-26.216a.716.716,0,0,1,.011-.163,18.488,18.488,0,0,1,1.581-4.216,16.946,16.946,0,0,1,2.268-3.326,13.3,13.3,0,0,1,2.612-2.319,10.656,10.656,0,0,1,.94-.563,4.128,4.128,0,0,1,1.677-.484,2.054,2.054,0,0,1,1.385.321,3.4,3.4,0,0,1,1.317,2.375,2.638,2.638,0,0,1-.2,1.317c-.383.754-1,1.368-1.407,2.1a4.239,4.239,0,0,0,.76,5.122,4.66,4.66,0,0,0,5.026.5,6.067,6.067,0,0,0,3.084-5.06A10.492,10.492,0,0,0,317.743,28.1Z" transform="translate(-124.485 -9.059)" fill-rule="evenodd"/>
      </g>
    </g>
    <g id="Group_415856" data-name="Group 415856" transform="translate(627.492 375.601)">
      <path id="Path_227658" data-name="Path 227658" d="M14.428,119.672c0,.192-.074.278-.262.278H13.3c-.188,0-.262-.086-.262-.278v-6.711c-.029.074-.221.744-.351,1.083l-1.7,4.107a.38.38,0,0,1-.364.294h-.76c-.188,0-.278-.118-.351-.294l-1.811-4.283a6.508,6.508,0,0,1-.278-.879v6.682c0,.192-.074.278-.262.278H6.352c-.188,0-.262-.086-.262-.278v-9.384c0-.192.074-.278.262-.278h.817a.245.245,0,0,1,.249.159l2.53,5.877c.1.249.294.817.307.879.016-.057.221-.613.323-.862l2.485-5.922c.045-.1.119-.131.249-.131h.862c.188,0,.262.086.262.278v9.384Z" transform="translate(-6.09 -109.9)"/>
      <path id="Path_227659" data-name="Path 227659" d="M34.162,110.01a.335.335,0,0,1,.351.278l2.836,9.384c.057.176-.016.278-.221.278h-.92a.31.31,0,0,1-.323-.278l-.687-2.264H32.114l-.674,2.264c-.045.176-.131.278-.323.278h-.85c-.188,0-.262-.1-.2-.278l2.836-9.384a.329.329,0,0,1,.351-.278Zm-.086,3.6a17.657,17.657,0,0,1-.4-2.133c-.029.131-.221,1.475-.409,2.1l-.834,2.689h2.456Z" transform="translate(-20.254 -109.9)"/>
      <path id="Path_227660" data-name="Path 227660" d="M55.142,112.176c0-.789-.482-1.242-1.77-1.242s-1.77.454-1.77,1.242v.294a.963.963,0,0,0,.744.981l2.661,1.009a2.106,2.106,0,0,1,1.606,1.986v1.214c0,1.2-.834,2.252-3.274,2.252s-3.29-1.054-3.29-2.252v-.846c0-.2.086-.294.278-.294h.862c.188,0,.262.086.262.294v.658c0,.789.556,1.242,1.872,1.242s1.884-.454,1.884-1.242v-.687c0-.732-.658-.981-1.226-1.2l-2.469-.948a2,2,0,0,1-1.3-1.815v-.834c0-1.2.76-2.252,3.143-2.252s3.172,1.054,3.172,2.252v.642c0,.192-.074.278-.262.278H55.4c-.2,0-.262-.086-.262-.278Z" transform="translate(-32.083 -109.74)"/>
      <path id="Path_227661" data-name="Path 227661" d="M72.936,110.01a.335.335,0,0,1,.351.278l2.836,9.384c.057.176-.016.278-.221.278h-.924a.31.31,0,0,1-.323-.278l-.687-2.264H70.884l-.674,2.264c-.045.176-.131.278-.323.278h-.85c-.188,0-.262-.1-.2-.278l2.836-9.384a.329.329,0,0,1,.351-.278Zm-.09,3.6a17.651,17.651,0,0,1-.4-2.133c-.029.131-.221,1.475-.409,2.1l-.834,2.689h2.456Z" transform="translate(-43.178 -109.9)"/>
      <path id="Path_227662" data-name="Path 227662" d="M99.325,118.73h3.744c.188,0,.278.057.278.262v.674c0,.2-.086.278-.278.278H98.123c-.159,0-.233-.1-.233-.294v-9.355c0-.2.074-.294.278-.294h.891c.188,0,.262.086.262.294v8.436Z" transform="translate(-60.371 -109.894)"/>
      <path id="Path_227663" data-name="Path 227663" d="M117.088,110.01a.329.329,0,0,1,.351.278l2.836,9.384c.057.176-.016.278-.221.278h-.92a.309.309,0,0,1-.323-.278l-.687-2.264H115.04l-.674,2.264c-.045.176-.131.278-.323.278H113.2c-.188,0-.262-.1-.2-.278l2.836-9.384a.329.329,0,0,1,.351-.278Zm-.09,3.6a17.654,17.654,0,0,1-.4-2.133c-.029.131-.221,1.475-.409,2.1l-.834,2.689h2.456Z" transform="translate(-69.29 -109.9)"/>
      <path id="Path_227664" data-name="Path 227664" d="M142.848,119.672c0,.192-.074.278-.262.278h-.862c-.188,0-.262-.086-.262-.278v-6.711c-.029.074-.221.744-.352,1.083l-1.7,4.107a.381.381,0,0,1-.364.294h-.76c-.188,0-.278-.118-.351-.294l-1.811-4.283a6.508,6.508,0,0,1-.278-.879v6.682c0,.192-.074.278-.262.278h-.817c-.192,0-.262-.086-.262-.278v-9.384c0-.192.074-.278.262-.278h.817a.245.245,0,0,1,.249.159l2.53,5.877c.1.249.294.817.307.879.016-.057.221-.613.323-.862l2.485-5.922c.045-.1.119-.131.249-.131h.862c.188,0,.262.086.262.278v9.384Z" transform="translate(-82.024 -109.9)"/>
      <path id="Path_227665" data-name="Path 227665" d="M162.164,116.245v3.4c0,.2-.057.294-.262.294h-.891c-.192,0-.262-.086-.262-.294v-9.355c0-.2.074-.294.262-.294h2.967c2.514,0,3.319,1.054,3.319,2.252v1.741c0,1.2-.805,2.252-3.319,2.252Zm0-5.027v3.813h1.811c1.316,0,1.9-.482,1.9-1.271v-1.271c0-.789-.584-1.271-1.9-1.271Z" transform="translate(-97.54 -109.894)"/>
      <path id="Path_227666" data-name="Path 227666" d="M181.578,110.01a.329.329,0,0,1,.351.278l2.836,9.384c.057.176-.016.278-.221.278h-.92a.31.31,0,0,1-.323-.278l-.687-2.264H179.53l-.674,2.264c-.045.176-.131.278-.323.278h-.846c-.188,0-.262-.1-.2-.278l2.836-9.384a.329.329,0,0,1,.351-.278Zm-.086,3.6a17.674,17.674,0,0,1-.4-2.133c-.029.131-.221,1.475-.409,2.1l-.834,2.689h2.456Z" transform="translate(-107.423 -109.9)"/>
      <path id="Path_227667" data-name="Path 227667" d="M199.829,117.583c0,.789.584,1.271,1.884,1.271,1.316,0,1.917-.482,1.917-1.271V110.3c0-.2.074-.294.262-.294h.891c.2,0,.262.086.262.294v7.512c0,1.2-.817,2.252-3.335,2.252-2.5,0-3.319-1.054-3.319-2.252V110.3c0-.2.086-.294.278-.294h.891c.192,0,.262.086.262.294v7.279Z" transform="translate(-119.796 -109.9)"/>
      <path id="Path_227668" data-name="Path 227668" d="M232.242,112.176c0-.789-.482-1.242-1.77-1.242s-1.77.454-1.77,1.242v.294a.963.963,0,0,0,.744.981l2.661,1.009a2.105,2.105,0,0,1,1.606,1.986v1.214c0,1.2-.834,2.252-3.274,2.252s-3.29-1.054-3.29-2.252v-.846c0-.2.086-.294.278-.294h.862c.188,0,.262.086.262.294v.658c0,.789.556,1.242,1.872,1.242s1.884-.454,1.884-1.242v-.687c0-.732-.658-.981-1.226-1.2l-2.468-.948a2,2,0,0,1-1.3-1.815v-.834c0-1.2.76-2.252,3.143-2.252s3.172,1.054,3.172,2.252v.642c0,.192-.074.278-.262.278H232.5c-.2,0-.262-.086-.262-.278Z" transform="translate(-136.802 -109.74)"/>
      <path id="Path_227669" data-name="Path 227669" d="M248.462,119.944c-.192,0-.262-.086-.262-.294v-9.355c0-.2.074-.294.262-.294h5c.188,0,.278.074.278.278v.658c0,.2-.086.278-.278.278h-3.846v2.951h3.58c.2,0,.29.074.29.278v.629c0,.188-.086.278-.29.278h-3.58v3.376h4.005c.188,0,.278.057.278.262v.674c0,.2-.086.278-.278.278h-5.158Z" transform="translate(-149.249 -109.894)"/>
      <path id="Path_227670" data-name="Path 227670" d="M268.2,118.73h3.744c.188,0,.278.057.278.262v.674c0,.2-.086.278-.278.278H267c-.159,0-.233-.1-.233-.294v-9.355c0-.2.074-.294.278-.294h.891c.188,0,.262.086.262.294Z" transform="translate(-160.229 -109.894)"/>
      <path id="Path_227671" data-name="Path 227671" d="M285.952,110.01a.335.335,0,0,1,.351.278l2.836,9.384c.057.176-.016.278-.221.278H288a.31.31,0,0,1-.323-.278l-.687-2.264H283.9l-.674,2.264c-.045.176-.131.278-.323.278h-.85c-.188,0-.261-.1-.2-.278l2.836-9.384a.329.329,0,0,1,.351-.278Zm-.09,3.6a17.68,17.68,0,0,1-.4-2.133c-.029.131-.221,1.475-.409,2.1l-.834,2.689h2.456Z" transform="translate(-169.136 -109.9)"/>
      <path id="Path_227672" data-name="Path 227672" d="M304.79,118.73h3.744c.192,0,.278.057.278.262v.674c0,.2-.086.278-.278.278h-4.941c-.16,0-.233-.1-.233-.294v-9.355c0-.2.073-.294.278-.294h.891c.188,0,.261.086.261.294Z" transform="translate(-181.865 -109.894)"/>
      <path id="Path_227673" data-name="Path 227673" d="M321.909,117.583c0,.789.585,1.271,1.884,1.271,1.316,0,1.917-.482,1.917-1.271V110.3c0-.2.074-.294.262-.294h.891c.2,0,.262.086.262.294v7.512c0,1.2-.817,2.252-3.335,2.252-2.5,0-3.319-1.054-3.319-2.252V110.3c0-.2.086-.294.278-.294h.891c.192,0,.262.086.262.294v7.279Z" transform="translate(-191.982 -109.9)"/>
      <path id="Path_227674" data-name="Path 227674" d="M351.808,110.01a.329.329,0,0,1,.352.278L355,119.672c.057.176-.016.278-.221.278h-.92a.31.31,0,0,1-.323-.278l-.687-2.264H349.76l-.674,2.264c-.045.176-.131.278-.323.278h-.846c-.188,0-.262-.1-.2-.278l2.836-9.384a.329.329,0,0,1,.351-.278Zm-.086,3.6a17.633,17.633,0,0,1-.4-2.133c-.029.131-.221,1.475-.409,2.1l-.834,2.689h2.456Z" transform="translate(-208.079 -109.9)"/>
      <path id="Path_227675" data-name="Path 227675" d="M375.99,119.672c.1.131.057.278-.131.278H374.7a.514.514,0,0,1-.425-.278L371,115.536h-.364v4.136c0,.192-.074.278-.278.278h-.891c-.188,0-.262-.086-.262-.278v-9.384c0-.192.073-.278.262-.278h.891c.2,0,.278.086.278.278v4.181h.352l3.053-4.181a.606.606,0,0,1,.454-.278h.964c.188,0,.233.131.131.278l-3.392,4.618Z" transform="translate(-220.802 -109.9)"/>
      <path id="Path_227676" data-name="Path 227676" d="M393.384,110.01c.192,0,.278.074.278.278v.658c0,.2-.086.278-.278.278h-2.338v8.436c0,.2-.074.294-.262.294h-.907c-.188,0-.262-.086-.262-.294v-8.436h-2.338c-.2,0-.278-.074-.278-.278v-.658c0-.2.073-.278.278-.278Z" transform="translate(-231.321 -109.9)"/>
      <path id="Path_227677" data-name="Path 227677" d="M408.009,117.583c0,.789.584,1.271,1.884,1.271,1.316,0,1.917-.482,1.917-1.271V110.3c0-.2.074-.294.262-.294h.891c.2,0,.262.086.262.294v7.512c0,1.2-.817,2.252-3.335,2.252-2.5,0-3.319-1.054-3.319-2.252V110.3c0-.2.086-.294.278-.294h.891c.192,0,.262.086.262.294v7.279Z" transform="translate(-242.892 -109.9)"/>
      <path id="Path_227678" data-name="Path 227678" d="M429.962,110.01a.335.335,0,0,1,.351.278l2.836,9.384c.057.176-.016.278-.221.278h-.919a.31.31,0,0,1-.323-.278L431,117.408h-3.086l-.674,2.264c-.045.176-.131.278-.323.278h-.85c-.188,0-.261-.1-.2-.278l2.836-9.384a.329.329,0,0,1,.352-.278Zm-.086,3.6a17.626,17.626,0,0,1-.4-2.133c-.029.131-.221,1.475-.409,2.1l-.834,2.689h2.456Z" transform="translate(-254.289 -109.9)"/>
      <path id="Path_227679" data-name="Path 227679" d="M448.8,118.73h3.744c.192,0,.278.057.278.262v.674c0,.2-.086.278-.278.278H447.6c-.159,0-.233-.1-.233-.294v-9.355c0-.2.074-.294.278-.294h.891c.188,0,.261.086.261.294Z" transform="translate(-267.017 -109.894)"/>
    </g>
  </g>
</svg>
