<svg xmlns="http://www.w3.org/2000/svg" width="130.817" height="206.471" viewBox="0 0 130.817 206.471">
  <g id="Group_415885" data-name="Group 415885" transform="translate(0.003)">
    <path id="Path_227743" data-name="Path 227743" d="M680.58,843.9a58.355,58.355,0,0,0,13.55-53.067c-1.608-.35-3.117-.655-4.541-.945a66.845,66.845,0,0,1,2.214,17.133A65.149,65.149,0,0,1,680.58,843.9Z" transform="translate(-571.808 -663.645)" fill="none"/>
    <path id="Path_227744" data-name="Path 227744" d="M556.734,854.263c-1.172,3.444-4,6.1-4.824,9.783-1.571,6.85-.422,13.977-3.58,21.06.5,3.155.356,5.417.893,5.635,1.1.448,6.064-4.167,7.683-11.5,1.068-4.892.724-10.505,1.964-16.019,1.55-6.751,7.785-9.887,4.031-14.742-1.787-2.225-4.768-2.552-7.817-2.284A8.711,8.711,0,0,1,556.734,854.263Z" transform="translate(-460.695 -710.882)" fill="#ffc5be"/>
    <path id="Path_227745" data-name="Path 227745" d="M240.373,588.006c-2.26,2.178-6.1,3.9-11.389,5.116v.9a19.809,19.809,0,0,0,8.818,16.465,3.459,3.459,0,0,1-3.892,5.719,26.469,26.469,0,0,1-3.574-2.859h-4.8a23.254,23.254,0,0,1-10.318-18.469,86.9,86.9,0,0,1-13.795-.545A26.521,26.521,0,0,1,189.578,616.2a3.371,3.371,0,0,1-3.858-5.512,19.8,19.8,0,0,0,8.818-16.465v-.9c-6.415-1.549-10.691-3.729-12.613-6.578a62.3,62.3,0,0,0-5.161,4.891q-1.362,1.477-2.623,3.038c11.367,15.27-3.789,25.118,4.621,35.267,2.789,3.411,8.06,5.719,8.886,12.642s-3.238,11.989-5.58,16.914c-2.7,5.588-2.255,13.3-1.748,20.384a62.016,62.016,0,0,0,7.262,5.688c10.283-9.556,40.684-9.168,49.4,1.072a58.2,58.2,0,0,0,18.107-13.417,65.145,65.145,0,0,0,11.225-36.877,66.906,66.906,0,0,0-2.214-17.133c-6.566-1.33-11.279-2.279-15.129-5.4A34.176,34.176,0,0,1,238.251,600.8a3.448,3.448,0,0,1,1.931-4.478c.085-.034.171-.062.257-.089A20.307,20.307,0,0,1,240.373,588.006Zm15.583,49.449a23.667,23.667,0,0,1-2.789,4.993c-2.239,3.583-2.48,4.239-3.069,11.92a52,52,0,0,1-1.032,8.439,26.345,26.345,0,0,1-7.819,14.089,8.233,8.233,0,0,1-10.782,1.379c-5.169-4.17-.689-11.057-6.89-17.947-5.2-5.719-17.88-7.646-18.669-20.67-.345-5.89,1.928-12.746,7.889-14.813,4.373-1.446,6.751.139,15.6-1.172,3.825-.518,7.477-1.721,11.61-2.2C252.511,620.23,258.608,629.7,255.956,637.455Z" transform="translate(-146.31 -492.972)" fill="#ffc5be"/>
    <path id="Path_227746" data-name="Path 227746" d="M440.151,854.681a8.712,8.712,0,0,0-1.651-8.071c-2.006.177-4.04.612-5.789.94-13.021,3-16.879,1-19.911,2-2.375.932-3.411,4.376-3.2,7.819.518,8.784,10.611,9.681,16.914,16.569a22.381,22.381,0,0,1,5.237,11.589c3.158-7.083,2.009-14.21,3.58-21.06C436.154,860.775,438.979,858.124,440.151,854.681Z" transform="translate(-344.112 -711.3)" fill="#fff"/>
    <path id="Path_227747" data-name="Path 227747" d="M517.28,549.257a15.122,15.122,0,0,0,6.89-3.133,15.373,15.373,0,0,0-6.89-3.134Z" transform="translate(-434.608 -456.206)" fill="#ecf0f1"/>
    <path id="Path_227748" data-name="Path 227748" d="M265.53,542.99a15.39,15.39,0,0,0-6.89,3.134,14.772,14.772,0,0,0,6.89,3.133Z" transform="translate(-217.305 -456.206)" fill="#ecf0f1"/>
    <path id="Path_227749" data-name="Path 227749" d="M334.968,1209.677c-8.415-5.191-27.019-5.3-35.708-.238q1,.5,2.012.97A57.739,57.739,0,0,0,334.968,1209.677Z" transform="translate(-251.433 -1013.007)" fill="#fff"/>
    <path id="Path_227750" data-name="Path 227750" d="M100.094,693.159a15.812,15.812,0,0,0,3.238,12.848c3.134,3.789,7.51,5.3,8.13,10.815s-3,10.231-5.271,15.054a36.765,36.765,0,0,0-1.472,4.541,61.973,61.973,0,0,0,5.755,9,42.753,42.753,0,0,1,2.95-15.024c2.273-4.859,5.444-8.784,4.959-13.194-.481-3.791-4.167-5.134-7.371-8.992a19.4,19.4,0,0,1-4-15.639c1.41-7.825,4.165-12,.318-18.241A61.871,61.871,0,0,0,102,684.773C101.489,687.436,100.638,690.142,100.094,693.159Z" transform="translate(-83.871 -566.555)" fill="#ffc5be"/>
    <path id="Path_227751" data-name="Path 227751" d="M99.939,771.728c-.62-5.511-5-7.027-8.13-10.815a15.813,15.813,0,0,1-3.238-12.848c.543-3.018,1.4-5.725,1.9-8.385a62,62,0,0,0,1.2,48.534q.719,1.582,1.522,3.11a36.412,36.412,0,0,1,1.472-4.541C96.944,781.959,100.559,777.241,99.939,771.728Z" transform="translate(-72.347 -621.46)" fill="#fff"/>
    <path id="Path_227752" data-name="Path 227752" d="M586.5,555.769a20.328,20.328,0,0,0,.064,8.228,3.451,3.451,0,0,1,4.221,2.02,27.765,27.765,0,0,0,8.645,10.334c2.859,2.308,7.269,2.928,12.917,4.167a58.083,58.083,0,0,0-15.984-22.873,3.441,3.441,0,0,1-.446-4.931,62.029,62.029,0,0,0-6.34-4.334q-.4.6-.756,1.216a6.707,6.707,0,0,1,.069.954A7.1,7.1,0,0,1,586.5,555.769Z" transform="translate(-492.44 -460.735)" fill="#fff"/>
    <path id="Path_227753" data-name="Path 227753" d="M431.07,450.1q3.452-.144,6.89-.572V425.76a25.079,25.079,0,0,1-6.89-3.07Z" transform="translate(-362.176 -355.133)" fill="#fff"/>
    <path id="Path_227754" data-name="Path 227754" d="M441.5,653.164h4.8a26.536,26.536,0,0,1-8.242-19.014q-3.426.41-6.873.545A23.252,23.252,0,0,0,441.5,653.164Z" transform="translate(-362.269 -532.796)" fill="#fff"/>
    <path id="Path_227755" data-name="Path 227755" d="M358.639,436.178V408.77a25.144,25.144,0,0,1-3.444-2.65,23.754,23.754,0,0,1-3.853,3.032c.136-.011.273-.022.409-.037v12.713a62.514,62.514,0,0,0-6.89,1.99V435.6A82.739,82.739,0,0,0,358.639,436.178Z" transform="translate(-289.745 -341.212)" fill="#ffc5be"/>
    <path id="Path_227756" data-name="Path 227756" d="M158.836,51.42a18.554,18.554,0,0,0-6.139,7.453,10.341,10.341,0,0,1,7.3-2.1,3.445,3.445,0,1,1,0,6.89,4.106,4.106,0,0,0-3.444,1.1,3.168,3.168,0,0,0-.241,2.653,3.443,3.443,0,0,1-2.239,4.339,3.379,3.379,0,0,1-1.033.173,3.438,3.438,0,0,1-1.584-.308,14.406,14.406,0,0,0-6.617,12.158,14.712,14.712,0,0,0,5.049,10.873,11.336,11.336,0,0,0,10.662-9.53,3.447,3.447,0,0,1,6.821,1,17.688,17.688,0,0,1-6.89,11.575c.278.161.559.315.842.464a14.712,14.712,0,0,0,3.428-.844,23.083,23.083,0,0,0,3.972,3.273q.937.141,1.886.206a16.464,16.464,0,0,0,13.779-6.89,3.445,3.445,0,0,1,5.444,0A17.776,17.776,0,0,0,213.947,97.8a17.805,17.805,0,0,1-6.89-11.61,3.447,3.447,0,0,1,6.821-1,11.029,11.029,0,0,0,7.165,8.75,11.364,11.364,0,0,0,3.994.724,11.2,11.2,0,0,0,11.3-10.817A10.851,10.851,0,0,0,231,74.48a3.444,3.444,0,0,1-1.55-3.927A14.136,14.136,0,0,0,230,66.764a15.572,15.572,0,0,0-29.386-6.89,3.444,3.444,0,0,1-6.131-3.1,21.731,21.731,0,0,1,5.477-6.887,15.637,15.637,0,0,0-25.63,0,21.731,21.731,0,0,1,5.477,6.887,3.474,3.474,0,0,1-6.233,3.069,15.474,15.474,0,0,0-13.78-8.442C159.472,51.4,159.152,51.4,158.836,51.42Z" transform="translate(-121.693 -36.304)" fill="#ffc5be"/>
    <path id="Path_227757" data-name="Path 227757" d="M158.814,553.722c-.654.587-1.24,1.24-1.894,1.827a35.544,35.544,0,0,1,2.752,3.244q1.261-1.561,2.623-3.038a62.049,62.049,0,0,1,5.161-4.891,6.635,6.635,0,0,1-.416-6.825,62.329,62.329,0,0,0-7.589,4.995,3.439,3.439,0,0,1-.638,4.688Z" transform="translate(-131.843 -457.088)" fill="#fff"/>
    <path id="Path_227758" data-name="Path 227758" d="M213.023,1172.786a48.415,48.415,0,0,0,5.993,3.444,13.007,13.007,0,0,1,1.036-1.072,62.094,62.094,0,0,1-7.262-5.688C212.87,1170.6,212.951,1171.706,213.023,1172.786Z" transform="translate(-178.783 -982.558)" fill="#fff"/>
    <path id="Path_227759" data-name="Path 227759" d="M297.185,1229.05c-.134.078-.265.157-.395.238q1.2.393,2.405.732Q298.181,1229.55,297.185,1229.05Z" transform="translate(-249.358 -1032.616)" fill="#fff"/>
    <path id="Path_227760" data-name="Path 227760" d="M351.75,437.573V424.86c-.136.014-.273.026-.409.037a23.809,23.809,0,0,1-6.481,2.856v11.81A62.516,62.516,0,0,1,351.75,437.573Z" transform="translate(-289.745 -356.956)" fill="#ffc5be"/>
    <path id="Path_227761" data-name="Path 227761" d="M108.637,126.94a14.4,14.4,0,0,1,6.617-12.158,3.446,3.446,0,0,1-1.862-2.1,9.922,9.922,0,0,1,1.1-8.611,10.35,10.35,0,0,1,2-2.035,18.553,18.553,0,0,1,6.139-7.453,15.332,15.332,0,0,0-14.546,15.137,13.977,13.977,0,0,0,.551,4,3.441,3.441,0,0,1-1.55,3.789,10.848,10.848,0,0,0-5.338,9.3,11.194,11.194,0,0,0,11.3,11.023c.214,0,.427,0,.638-.014A14.712,14.712,0,0,1,108.637,126.94Z" transform="translate(-85.49 -79.464)" fill="#fff"/>
    <path id="Path_227762" data-name="Path 227762" d="M251.4,381.76a14.63,14.63,0,0,1-3.428.844,23.223,23.223,0,0,0,7.4,2.429A22.964,22.964,0,0,1,251.4,381.76Z" transform="translate(-208.34 -320.745)" fill="#ffc5be"/>
    <path id="Path_227763" data-name="Path 227763" d="M6.3,712.146a3.442,3.442,0,0,1,1.8-1.939,3.613,3.613,0,0,1,4.545,1.619,57.579,57.579,0,0,0,14.33,18.912,42.878,42.878,0,0,1-.368-6.232,62.058,62.058,0,0,1-5.755-9q-.8-1.527-1.522-3.11a61.969,61.969,0,0,1,4.138-58.977,25.941,25.941,0,0,0-3.107-3.978A58.56,58.56,0,0,0,6.89,686.678a3.445,3.445,0,1,1-6.89,0,66.1,66.1,0,0,0,6.409,28.11A3.447,3.447,0,0,1,6.3,712.146ZM1.619,700.46A3.445,3.445,0,1,1,5.065,703.9,3.446,3.446,0,0,1,1.619,700.46Z" transform="translate(-0.002 -545.643)" fill="#fff"/>
    <path id="Path_227764" data-name="Path 227764" d="M17.02,950.554A3.445,3.445,0,1,0,13.576,954,3.444,3.444,0,0,0,17.02,950.554Z" transform="translate(-8.513 -795.737)" fill="#ff6e5c"/>
    <path id="Path_227765" data-name="Path 227765" d="M84.873,93.776c1.923,2.85,6.2,5.03,12.613,6.578v.9a19.809,19.809,0,0,1-8.818,16.465,3.364,3.364,0,0,0,3.858,5.512,26.523,26.523,0,0,0,11.849-21.874,86.9,86.9,0,0,0,13.795.545q3.443-.137,6.873-.545a26.564,26.564,0,0,0,11.816,21.874,3.459,3.459,0,1,0,3.892-5.719,19.8,19.8,0,0,1-8.818-16.465v-.9c5.293-1.216,9.129-2.938,11.389-5.116a7.1,7.1,0,0,0,2.391-5.222,6.706,6.706,0,0,0-.069-.954c-.606-4.259-5.335-7.358-13.711-9.38V71.485A24.8,24.8,0,0,0,148.5,64.768a17.876,17.876,0,0,0,22.286-17.224,17.667,17.667,0,0,0-6.615-13.779,19.164,19.164,0,0,0,.275-3.446,22.221,22.221,0,0,0-22.39-22.046A23.017,23.017,0,0,0,133.414,10a22.5,22.5,0,0,0-37.409,0A23.017,23.017,0,0,0,87.36,8.274,22.221,22.221,0,0,0,64.97,30.321a19.312,19.312,0,0,0,.275,3.446A17.664,17.664,0,0,0,58.63,47.408,18.085,18.085,0,0,0,76.818,65.252a17.5,17.5,0,0,0,4.031-.518,28.453,28.453,0,0,0,16.636,6.751v8.2c-6.93,1.6-11.36,4.048-13.029,7.266a6.637,6.637,0,0,0,.417,6.828Zm16.265-70.239a3.474,3.474,0,1,0,6.233-3.069,21.731,21.731,0,0,0-5.477-6.887,15.637,15.637,0,0,1,25.63,0,21.731,21.731,0,0,0-5.477,6.887,3.444,3.444,0,0,0,6.131,3.1,15.572,15.572,0,0,1,29.386,6.89,14.009,14.009,0,0,1-.551,3.789,3.443,3.443,0,0,0,1.55,3.927,10.849,10.849,0,0,1,5.338,9.369,11.2,11.2,0,0,1-11.3,10.817,11.365,11.365,0,0,1-3.994-.724,11.026,11.026,0,0,1-7.165-8.75,3.447,3.447,0,0,0-6.821,1,17.805,17.805,0,0,0,6.89,11.61A17.777,17.777,0,0,1,117.4,57.6a3.445,3.445,0,0,0-5.444,0,16.464,16.464,0,0,1-13.779,6.89q-.949-.065-1.886-.206a23.223,23.223,0,0,1-7.4-2.429c-.283-.149-.564-.3-.842-.463a17.684,17.684,0,0,0,6.89-11.575,3.447,3.447,0,0,0-6.821-1,11.337,11.337,0,0,1-10.662,9.53c-.211.01-.424.016-.638.014a11.2,11.2,0,0,1-11.3-11.023,10.85,10.85,0,0,1,5.338-9.3,3.442,3.442,0,0,0,1.55-3.789,14.09,14.09,0,0,1-.551-4A15.332,15.332,0,0,1,86.4,15.113c.318-.016.636-.024.956-.021A15.481,15.481,0,0,1,101.139,23.538ZM97.487,86.784v6.267a14.779,14.779,0,0,1-6.89-3.133A15.39,15.39,0,0,1,97.487,86.784Zm6.89-4.178V70.8a23.891,23.891,0,0,0,10.334-5.888,25.2,25.2,0,0,0,10.334,5.72V94.395q-3.435.432-6.89.572a82.892,82.892,0,0,1-13.777-.572V82.606Zm27.557,10.445V86.784a15.391,15.391,0,0,1,6.89,3.134A15.122,15.122,0,0,1,131.934,93.051Z" transform="translate(-49.262)" fill="#ff6e5c"/>
    <path id="Path_227766" data-name="Path 227766" d="M172.95,131.961a9.923,9.923,0,0,0-1.1,8.611,3.457,3.457,0,0,0,3.446,2.412,3.378,3.378,0,0,0,1.033-.173,3.443,3.443,0,0,0,2.239-4.339,3.168,3.168,0,0,1,.241-2.653,4.1,4.1,0,0,1,3.444-1.1,3.445,3.445,0,1,0,0-6.89,10.348,10.348,0,0,0-9.3,4.133Z" transform="translate(-143.945 -107.357)" fill="#ff6e5c"/>
    <path id="Path_227767" data-name="Path 227767" d="M374.341,806.794c-5.96,2.067-8.234,8.923-7.889,14.813.79,13.023,13.469,14.95,18.669,20.67,6.2,6.89,1.721,13.779,6.89,17.947a8.233,8.233,0,0,0,10.782-1.379,26.351,26.351,0,0,0,7.819-14.089,52,52,0,0,0,1.033-8.439c.587-7.681.829-8.336,3.069-11.92A23.6,23.6,0,0,0,417.5,819.4c2.652-7.752-3.446-17.224-15.949-15.984-4.133.481-7.785,1.686-11.61,2.2C381.092,806.934,378.714,805.348,374.341,806.794Zm35.721,5.719c3.756,4.857-2.481,7.991-4.031,14.742-1.24,5.512-.9,11.125-1.964,16.019-1.619,7.338-6.578,11.953-7.683,11.5-.537-.217-.395-2.481-.893-5.635a22.381,22.381,0,0,0-5.237-11.589c-6.3-6.89-16.4-7.785-16.914-16.569-.206-3.444.829-6.888,3.2-7.819,3.032-1,6.89,1,19.911-2,1.748-.328,3.785-.762,5.789-.94C405.3,809.961,408.275,810.288,410.062,812.513Z" transform="translate(-307.858 -674.921)" fill="#ff6e5c"/>
    <path id="Path_227768" data-name="Path 227768" d="M108.475,567.529a3.445,3.445,0,1,0-4.549,5.166,58.1,58.1,0,0,1,15.984,22.873c-5.65-1.239-10.059-1.859-12.917-4.167a27.753,27.753,0,0,1-8.645-10.334,3.45,3.45,0,0,0-4.221-2.02c-.086.027-.173.056-.257.089a3.448,3.448,0,0,0-1.931,4.478,34.177,34.177,0,0,0,10.715,13.021c3.85,3.115,8.562,4.066,15.129,5.4,1.424.288,2.933.595,4.541.945a58.333,58.333,0,0,1-31.657,66.484c-8.712-10.24-39.113-10.628-49.4-1.072a13.021,13.021,0,0,0-1.036,1.072,48.121,48.121,0,0,1-5.993-3.444c-.07-1.082-.153-2.191-.233-3.316-.507-7.079-.956-14.8,1.748-20.384,2.343-4.926,6.406-9.991,5.58-16.914s-6.1-9.232-8.886-12.642c-8.41-10.149,6.748-20-4.621-35.267a35.291,35.291,0,0,0-2.752-3.244c.654-.587,1.24-1.24,1.894-1.827a3.445,3.445,0,1,0-4.549-5.166A65.456,65.456,0,0,0,0,616.822a3.446,3.446,0,1,0,6.892,0,58.575,58.575,0,0,1,13.469-37.238,25.814,25.814,0,0,1,3.107,3.978c3.847,6.241,1.092,10.416-.318,18.241a19.4,19.4,0,0,0,4,15.639c3.2,3.858,6.89,5.2,7.371,8.992.484,4.408-2.687,8.335-4.959,13.194a42.8,42.8,0,0,0-2.583,21.255,57.58,57.58,0,0,1-14.33-18.912A3.613,3.613,0,0,0,8.1,640.352a3.442,3.442,0,0,0-1.688,4.582A65.8,65.8,0,0,0,40.2,677.142a2.259,2.259,0,0,0,.412.206,65.441,65.441,0,0,0,67.859-109.82ZM47.827,672.22c8.69-5.066,27.293-4.953,35.708.238a57.74,57.74,0,0,1-33.7.732q-1.208-.34-2.405-.732C47.562,672.376,47.693,672.3,47.827,672.22Z" transform="translate(0 -475.786)" fill="#ff6e5c"/>
  </g>
</svg>
