<svg xmlns="http://www.w3.org/2000/svg" width="148.038" height="30.474" viewBox="0 0 148.038 30.474">
  <g id="Group_415861" data-name="Group 415861" transform="translate(-590 -306.982)">
    <g id="Group_415855" data-name="Group 415855" transform="translate(590 306.982)">
      <g id="Group_415854" data-name="Group 415854">
        <path id="Path_227640" data-name="Path 227640" d="M22.139,24.5H25.5V23.71H14.268V24.5h3.367v9.605H7.868V24.493h3.361V23.71H0v.8H3.351V45.3H0v.777H11.225v-.792H7.874V34.926h9.764V45.3H14.271v.78H25.5v-.8H22.139Z" transform="translate(0 -16.164)" fill-rule="evenodd"/>
        <path id="Path_227641" data-name="Path 227641" d="M184.122,27.69a4.386,4.386,0,0,1-1.595,2.046,3.4,3.4,0,0,1-2.623.366,2.45,2.45,0,0,1-1.891-1.665,6.438,6.438,0,0,1-.35-2.285q-.019-8.364-.01-16.731c0-.1.01-.191.019-.321h6.763V8.3h-6.789V1.14a4.191,4.191,0,0,1-4.478.239V8.317H169.81v.812h3.377v.426q0,8.02,0,16.037a5.307,5.307,0,0,0,1.12,3.243,5.923,5.923,0,0,0,2.342,1.827,6.457,6.457,0,0,0,3.756.423,5.572,5.572,0,0,0,3.062-1.426,5.772,5.772,0,0,0,1.286-1.84,12.114,12.114,0,0,0,.586-1.55c-.3-.076-.522-.134-.719-.185-.172.557-.315,1.088-.5,1.6" transform="translate(-115.765 -0.777)" fill-rule="evenodd"/>
        <path id="Path_227642" data-name="Path 227642" d="M137.956,33.7a8.415,8.415,0,0,0-2.607-1.785c-.8-.385-1.642-.678-2.473-.983-.888-.328-1.8-.6-2.683-.939-.754-.286-1.486-.627-2.221-.961a2.447,2.447,0,0,1-1.095-.955,3.577,3.577,0,0,1-.1-3.8,4.214,4.214,0,0,1,2.113-1.8,5.957,5.957,0,0,1,3.495-.3,4.2,4.2,0,0,1,2.677,1.836,9.2,9.2,0,0,1,1.489,3.3c.134.554.153.563.684.484v-5.8a1.55,1.55,0,0,0-.544.1,1.6,1.6,0,0,1-1.6.127,12.811,12.811,0,0,0-1.894-.726,7.2,7.2,0,0,0-7.813,2.778,5.273,5.273,0,0,0-.573,1.053,7.7,7.7,0,0,0-.382,4.5,5.411,5.411,0,0,0,1.375,2.791,6.68,6.68,0,0,0,2.04,1.349A25.8,25.8,0,0,0,130.8,35.1a18.823,18.823,0,0,1,3.039,1.095,4.175,4.175,0,0,1,1.5,1.267,4.957,4.957,0,0,1,.576,1.241,4.781,4.781,0,0,1,.124,2.091,3.5,3.5,0,0,1-1.693,2.734,4.71,4.71,0,0,1-2.6.646,6.507,6.507,0,0,1-4.039-1.416,3.882,3.882,0,0,1-.331-.264,9.524,9.524,0,0,1-1.887-2.549.351.351,0,0,0-.229-.194c-.43-.019-.862-.01-1.334-.01v4.424c.258.013.509.092.716-.229a.961.961,0,0,1,.6-.344,2.423,2.423,0,0,1,1.015.025c.773.223,1.528.512,2.288.777a8.446,8.446,0,0,0,6.668-.191,7.4,7.4,0,0,0,3.7-3.66,6.763,6.763,0,0,0,.506-3.743,5.621,5.621,0,0,0-1.474-3.1" transform="translate(-84.487 -14.512)" fill-rule="evenodd"/>
        <g id="Group_415853" data-name="Group 415853" transform="translate(69.07 6.715)">
          <path id="Path_227643" data-name="Path 227643" d="M239.482,32.847v-.006a11.006,11.006,0,0,0-.344-2.772,11.734,11.734,0,0,0-3.59-5.958,12.661,12.661,0,0,0-2.381-1.7,10.545,10.545,0,0,0-2.553-1,9.211,9.211,0,0,0-4.729,0,10.542,10.542,0,0,0-2.553,1,12.56,12.56,0,0,0-2.381,1.7,11.769,11.769,0,0,0-3.59,5.958,11.006,11.006,0,0,0-.344,2.772v.006h0a11.161,11.161,0,0,0,.105,1.518,11.99,11.99,0,0,0,3.711,7.129,10.912,10.912,0,0,0,2.6,1.855,11.148,11.148,0,0,0,2.269.907,9.665,9.665,0,0,0,5.086,0,11.075,11.075,0,0,0,2.269-.907,10.912,10.912,0,0,0,2.6-1.855,12,12,0,0,0,3.711-7.129,9.8,9.8,0,0,0,.111-1.518Zm-5.07,4.822A10.637,10.637,0,0,1,233.4,40.96a5.029,5.029,0,0,1-2.836,2.527,7.842,7.842,0,0,1-4.634,0A5.04,5.04,0,0,1,223.1,40.96a10.612,10.612,0,0,1-1.009-3.291,28.338,28.338,0,0,1-.312-4.15c0-.029,0-.172.006-.35.006-.35.019-1.454.022-1.715a19.635,19.635,0,0,1,.716-5.261,6.447,6.447,0,0,1,1.69-2.931,4.647,4.647,0,0,1,2.241-1.213,9.034,9.034,0,0,1,3.6,0,4.621,4.621,0,0,1,2.241,1.213,6.463,6.463,0,0,1,1.69,2.931,19.651,19.651,0,0,1,.716,5.261c0,.261.016,1.365.022,1.715,0,.178.006.318.006.35A29.205,29.205,0,0,1,234.412,37.669Z" transform="translate(-217.018 -21.1)"/>
          <g id="Group_415852" data-name="Group 415852" transform="translate(4.093 2.635)">
            <path id="Path_227644" data-name="Path 227644" d="M253.36,77.62Z" transform="translate(-245.887 -62.267)" fill="none"/>
            <path id="Path_227645" data-name="Path 227645" d="M265.773,77.56a.012.012,0,0,0,0-.01.012.012,0,0,1,0,.01Z" transform="translate(-254.347 -62.219)" fill="none"/>
            <path id="Path_227646" data-name="Path 227646" d="M250.263,81.72s0-.006,0-.01A.012.012,0,0,0,250.263,81.72Z" transform="translate(-243.773 -65.055)" fill="none"/>
            <path id="Path_227647" data-name="Path 227647" d="M260.37,76.16Z" transform="translate(-250.666 -61.272)" fill="none"/>
            <path id="Path_227648" data-name="Path 227648" d="M247.425,48.551a4.253,4.253,0,0,0-.363-.783,8.641,8.641,0,0,0-2.317-2.053,2.709,2.709,0,0,1-.363-.331,1.283,1.283,0,0,1-.156-.21.968.968,0,0,1-.111-.255.938.938,0,0,1-.038-.277,1.429,1.429,0,0,1,.026-.264,14.526,14.526,0,0,1,.853-2.126,3.941,3.941,0,0,0,.264-1.283c0-.143-.01-.286-.019-.43a13.163,13.163,0,0,0-.3-1.6.057.057,0,0,0-.079-.038,15.294,15.294,0,0,1-2.327.821,19.982,19.982,0,0,1-2.747.547.059.059,0,0,0-.051.07c.025.105.054.207.089.309,0,0,0,.006,0,.01a2.768,2.768,0,0,0,.554.968,1.788,1.788,0,0,0,1.229.586c.079,0,.159.006.235,0a3.6,3.6,0,0,0,.862-.13,4.3,4.3,0,0,0,1.028-.433c.267-.156.573-.337.659-.656.057-.207-.1-.286-.286-.267a1.348,1.348,0,0,0-.481.13,2.6,2.6,0,0,0-.49.277.19.19,0,0,1-.048.029.059.059,0,0,1-.07-.092h0a2.309,2.309,0,0,1,1.248-.611c.477-.045.659.216.617.452a1.678,1.678,0,0,1-.551.882,3.137,3.137,0,0,1-.681.49,4.831,4.831,0,0,1-2.129.56,1.857,1.857,0,0,1-.563-.041,1.049,1.049,0,0,1-.239-.073,2.614,2.614,0,0,0,.522.5c.188.156.382.3.576.452l.194.146.194.146c.127.1.264.188.4.29a3.253,3.253,0,0,1,.395.341,1.491,1.491,0,0,1,.175.216c.013.019.025.041.038.06a.615.615,0,0,1,.035.064,1.071,1.071,0,0,1,.057.14,1.136,1.136,0,0,1,.035.15,1.191,1.191,0,0,1,.013.146,1.578,1.578,0,0,1-.025.28,2.7,2.7,0,0,1-.159.5c-.064.156-.134.309-.2.455-.016.038-.032.073-.048.108l-.048.111c-.032.073-.064.15-.1.226-.127.3-.255.6-.379.9l-.006.013-.006.013-.01.035-.019.051c-.013.035-.026.07-.035.105s-.022.07-.032.108-.019.073-.025.111a3.591,3.591,0,0,0-.064.452,4.469,4.469,0,0,0-.006.461,3.8,3.8,0,0,0,.045.461,3.959,3.959,0,0,0,.092.446s.395,1.684.439,1.811c.14.411,1.241.831,2.941.376s2.441-1.369,2.358-1.792c-.022-.115-.541-1.852-.541-1.852C247.47,48.688,247.451,48.618,247.425,48.551Z" transform="translate(-236.572 -35.865)" fill="none"/>
            <path id="Path_227649" data-name="Path 227649" d="M241.7,46.2a4.82,4.82,0,0,0,2.129-.56,3.336,3.336,0,0,0,.681-.49,1.671,1.671,0,0,0,.551-.882c.038-.232-.143-.493-.617-.452a2.284,2.284,0,0,0-1.248.611h0a.058.058,0,0,0,.07.092.459.459,0,0,0,.048-.029,2.419,2.419,0,0,1,.49-.277,1.42,1.42,0,0,1,.481-.13c.188-.016.344.06.286.267a1.252,1.252,0,0,1-.659.656,4.3,4.3,0,0,1-1.028.433,3.58,3.58,0,0,1-.863.13c-.08,0-.159,0-.236,0a1.8,1.8,0,0,1-1.229-.586,2.721,2.721,0,0,1-.554-.968s0-.006,0-.01c.1.29.169.589.274.878a4.042,4.042,0,0,0,.63,1.206,1.1,1.1,0,0,0,.239.073A1.9,1.9,0,0,0,241.7,46.2Z" transform="translate(-236.779 -39.222)" fill="#eb2027"/>
            <path id="Path_227650" data-name="Path 227650" d="M242.954,43.346a.055.055,0,0,1-.045-.038c-.076-.245-.156-.49-.229-.732q-.263-.855-.516-1.715-.344-1.179-.668-2.362a.272.272,0,0,1,.038-.226.53.53,0,0,0,.076-.439.521.521,0,0,0-.188-.283.209.209,0,0,1-.067-.245.539.539,0,0,0,.022-.341.529.529,0,0,0-.286-.344.268.268,0,0,1-.146-.175c-.216-.831-.43-1.665-.633-2.5-.14-.579-.28-1.162-.411-1.744-.051-.226-.1-.452-.153-.681a.061.061,0,0,1,.019-.057,2.33,2.33,0,0,0,.681-.777.6.6,0,0,0,.038-.1.334.334,0,0,0-.067-.347c-.185-.191-.637-.127-1.4-.01a9.635,9.635,0,0,0-1.521.382c-.251.092-.983.369-1,.64s.423.245,1.241.067a.2.2,0,0,1,.022-.006.125.125,0,0,1,.083.236l-.016.006a17.082,17.082,0,0,1-2.67.8,11.645,11.645,0,0,1-1.41.181c-.614-.035-.42-.366-.207-.573.035-.032.073-.064.111-.1l0,0a8.693,8.693,0,0,1,2.734-1.432c.207-.07.7-.21.751-.226a15.416,15.416,0,0,1,2.807-.5c.162-.016.293-.032.3-.143s-.153-.143-.283-.166h0a15.913,15.913,0,0,0-5,.672c-3.771,1.2-5.067,2.473-5.083,2.941a.587.587,0,0,0,.277.509,2.086,2.086,0,0,0,.939.3.06.06,0,0,1,.048.038c.067.21.134.42.2.63q.263.855.516,1.715c.242.824.474,1.655.7,2.482a.272.272,0,0,1-.038.226.536.536,0,0,0-.076.442.522.522,0,0,0,.188.283.209.209,0,0,1,.067.245.539.539,0,0,0-.022.341.529.529,0,0,0,.286.344.268.268,0,0,1,.146.175q.31,1.189.6,2.381c.14.579.28,1.162.411,1.744.057.251.111.5.169.751a.061.061,0,0,1-.019.057c-.528.423-.793.84-.7,1.187.242.9,2.81,1,5.735.213s5.1-2.151,4.863-3.052C244.061,43.677,243.622,43.451,242.954,43.346Zm-8-.519c0,.172,0,.344.013.516a4.914,4.914,0,0,0,.067.519l.025.131.025.121.054.239c.045.207.089.417.134.624a.058.058,0,0,1-.029.064c-.086.048-.169.1-.251.143a.056.056,0,0,1-.083-.032c-.048-.15-.1-.3-.14-.452q-.263-.855-.516-1.715-.344-1.179-.668-2.362a.272.272,0,0,1,.038-.226.53.53,0,0,0,.076-.439.521.521,0,0,0-.188-.283.209.209,0,0,1-.067-.245.539.539,0,0,0,.022-.341.529.529,0,0,0-.286-.344.268.268,0,0,1-.146-.175c-.216-.831-.43-1.665-.633-2.5-.14-.579-.28-1.162-.411-1.744-.029-.127-.057-.258-.086-.385a.058.058,0,0,1,.054-.07l.3-.01a.06.06,0,0,1,.057.038l.153.468.073.232.038.118.019.057.022.064c.029.086.057.166.089.248l.051.121c.01.019.016.041.025.06l.029.06a4.785,4.785,0,0,0,.242.455l.032.054a.512.512,0,0,0,.035.054c.022.035.045.073.07.108.048.07.1.143.15.21s.105.137.159.2.111.13.175.194.124.124.188.185l.1.086c.009.006.016.016.025.022l.025.019.054.041a.56.56,0,0,0,.054.038l.051.035.1.07c.067.048.134.092.2.14l.4.283.2.143.2.143c.137.1.271.185.4.28.064.048.124.1.185.143a1.875,1.875,0,0,1,.165.153.921.921,0,0,1,.22.334.76.76,0,0,1,.006.388,2.3,2.3,0,0,1-.14.426c-.06.143-.131.286-.2.436-.016.038-.035.076-.051.115l-.051.111c-.032.073-.067.15-.1.223-.137.3-.271.592-.411.888l-.006.013-.006.016-.013.032-.025.06c-.019.041-.032.083-.048.124l-.022.064c-.006.022-.013.041-.019.064-.013.041-.025.083-.035.127a4.11,4.11,0,0,0-.1.509A2.277,2.277,0,0,0,234.953,42.827Zm1.413,3.208s0,.006,0,.01A.012.012,0,0,1,236.366,46.035Zm4.939-1.314h0a.012.012,0,0,0,0-.01A.012.012,0,0,1,241.305,44.721Zm.035-.6c.083.423-.659,1.337-2.358,1.792s-2.8.035-2.941-.376c-.045-.13-.439-1.811-.439-1.811a4.252,4.252,0,0,1-.092-.446c-.022-.153-.035-.306-.045-.461a4.486,4.486,0,0,1,.006-.461,3.515,3.515,0,0,1,.064-.452c.006-.038.019-.073.025-.111a1.091,1.091,0,0,1,.032-.108,1.018,1.018,0,0,1,.035-.105l.019-.051.01-.025.006-.013.006-.013c.124-.3.251-.6.379-.9.032-.076.064-.15.1-.226l.048-.111c.016-.038.032-.073.048-.108.067-.146.137-.3.2-.455a2.7,2.7,0,0,0,.159-.5,1.344,1.344,0,0,0,.025-.28,1.123,1.123,0,0,0-.013-.146,1.274,1.274,0,0,0-.035-.15,1.083,1.083,0,0,0-.057-.14.408.408,0,0,0-.035-.064c-.013-.019-.025-.041-.038-.06a1.674,1.674,0,0,0-.175-.216,3.245,3.245,0,0,0-.395-.341c-.134-.1-.271-.194-.4-.29l-.194-.146-.194-.146c-.194-.146-.388-.293-.576-.452a2.612,2.612,0,0,1-.522-.5,4.2,4.2,0,0,1-.63-1.206c-.1-.29-.175-.589-.274-.878a2.622,2.622,0,0,1-.089-.309.058.058,0,0,1,.051-.07,19.518,19.518,0,0,0,2.747-.547,15.1,15.1,0,0,0,2.39-.85,13.44,13.44,0,0,1,.315,1.671c.01.143.019.286.019.43a3.861,3.861,0,0,1-.264,1.283A14.322,14.322,0,0,0,237.4,37.9a1.434,1.434,0,0,0-.025.264,1.035,1.035,0,0,0,.038.277,1.08,1.08,0,0,0,.111.255,1.8,1.8,0,0,0,.156.21,2.918,2.918,0,0,0,.363.331,8.691,8.691,0,0,1,2.317,2.053,4.263,4.263,0,0,1,.363.783c.022.067.045.137.064.2C240.8,42.27,241.318,44.011,241.34,44.123Zm-.812-6.6a.209.209,0,0,1,.067.245.539.539,0,0,0-.022.341.529.529,0,0,0,.286.344.268.268,0,0,1,.146.175q.31,1.189.6,2.381c.14.579.28,1.162.411,1.744.035.153.07.309.1.461a.057.057,0,0,1-.057.07c-.092,0-.191,0-.29,0a.063.063,0,0,1-.057-.038L241.7,43.2c-.048-.146-.1-.29-.14-.436s-.092-.29-.14-.436l-.019-.057c-.006-.019-.013-.038-.019-.06l-.019-.057-.022-.057c-.029-.076-.057-.153-.092-.226-.064-.15-.137-.293-.213-.433s-.162-.277-.251-.411a4.185,4.185,0,0,0-.63-.738c-.06-.054-.124-.108-.191-.159l-.051-.038-.013-.01-.013-.01-.022-.016-.092-.067c-.124-.086-.248-.175-.372-.264l-.748-.532c-.127-.089-.251-.172-.366-.261a2.711,2.711,0,0,1-.315-.28,1.058,1.058,0,0,1-.118-.156.733.733,0,0,1-.073-.162.629.629,0,0,1-.022-.175.994.994,0,0,1,.019-.191,1.516,1.516,0,0,1,.054-.2q.033-.1.076-.2c.057-.134.121-.267.188-.407.239-.516.512-1.034.71-1.572a4.146,4.146,0,0,0,.185-1.8,14.325,14.325,0,0,0-.258-1.626.052.052,0,0,1,.029-.06c.035-.019.083-.048.1-.054.061-.035.121-.067.178-.1a.056.056,0,0,1,.083.032c.041.13.083.261.121.388q.263.855.516,1.715c.242.824.474,1.655.7,2.482a.272.272,0,0,1-.038.226.536.536,0,0,0-.076.442A.5.5,0,0,0,240.529,37.522Z" transform="translate(-229.879 -29.381)"/>
            <path id="Path_227651" data-name="Path 227651" d="M254.182,66.926a4.313,4.313,0,0,0-1.416.057,5.031,5.031,0,0,0-1.235.417,2.148,2.148,0,0,0-.614.439.271.271,0,0,0-.067.188c.025.156.22.21.369.223a2.349,2.349,0,0,0,.557-.041,6.138,6.138,0,0,0,.831-.185l.271-.086c.633-.223.878-.452.8-.544-.159-.2-.952.032-1.022.054a.07.07,0,0,0-.048.08.066.066,0,0,0,.076.048c.07-.01.245-.064.439-.086a.863.863,0,0,1,.127,0c.01,0,.029,0,.045,0s.025.022.013.032-.019.016-.025.022c-.029.019-.067.041-.1.06s-.08.035-.118.051c-.083.032-.169.064-.255.089s-.175.054-.261.076-.175.045-.261.064c-.178.035-.36.067-.538.089a1.9,1.9,0,0,1-.264.025c-.356,0-.2-.172-.061-.267a1.546,1.546,0,0,1,.226-.121,4.624,4.624,0,0,1,1.018-.344c.175-.035.426-.086.6-.1a1.319,1.319,0,0,1,.888.134.144.144,0,0,1,.045.041.056.056,0,0,1,.013.038.09.09,0,0,1-.006.048.724.724,0,0,1-.232.28,2.677,2.677,0,0,1-.608.35,5.132,5.132,0,0,1-1,.337c-.172.038-.344.07-.519.092a4.422,4.422,0,0,1-.614.041.923.923,0,0,1-.589-.137.4.4,0,0,1-.134-.318,11.776,11.776,0,0,1,.477-1.4,7.227,7.227,0,0,0,.309-1.168,5.744,5.744,0,0,0,.07-1.041c0-.172-.013-.347-.032-.519-.01-.086-.019-.172-.032-.258,0-.025-.019-.108-.029-.172a.085.085,0,0,0-.108-.064.087.087,0,0,0-.07.1c.01.06.026.14.029.165.01.083.019.165.025.251.013.169.019.334.016.5s-.013.337-.029.5-.045.334-.08.5a11.3,11.3,0,0,1-.465,1.413c-.538,1.171-.535,1.515-.5,1.661.105.395.971.5,1.537.439a5.707,5.707,0,0,0,.92-.172,5.62,5.62,0,0,0,.63-.21,3.919,3.919,0,0,0,.894-.468,2.833,2.833,0,0,0,.563-.522c.08-.108.207-.369-.025-.532A1.762,1.762,0,0,0,254.182,66.926Zm-3.055,1.034Zm2.231-.461Z" transform="translate(-243.653 -52.607)" fill="#eb2027"/>
          </g>
        </g>
        <path id="Path_227652" data-name="Path 227652" d="M353.629,45.282V23.71H345.79V24.5h3.358V45.282h-3.355v.162h0v.337h0v.3h11.241v-.8Z" transform="translate(-235.737 -16.164)" fill-rule="evenodd"/>
        <path id="Path_227653" data-name="Path 227653" d="M408.435,29.26c-.223,0-.331-.032-.4-.271-.2-.691-.449-1.369-.678-2.053L405.5,21.351q-1.012-3.036-2.027-6.069-1.093-3.275-2.18-6.553c-.356-1.073-.723-2.142-1.082-3.214q-.85-2.549-1.687-5.1c-.051-.156-.118-.207-.274-.2s-.28,0-.341.2c-.146.487-.321.968-.49,1.448-.512,1.464-1.028,2.928-1.534,4.4-.805,2.339-1.6,4.679-2.409,7.018-.6,1.75-1.219,3.5-1.824,5.248-.713,2.062-1.416,4.131-2.129,6.193-.493,1.429-1,2.855-1.48,4.29-.073.22-.162.251-.379.258H385.31v.8h6.967v-.8h-3.549c.016-.041,1.391-3.95,1.884-5.372a.349.349,0,0,1,.395-.267q5.175.01,10.347,0a.361.361,0,0,1,.407.29c.446,1.353,1.684,5.051,1.782,5.35h-3.106v.022h0V29.9h0v.159h10.28v-.8h-2.282ZM391,22.8q2.693-7.944,5.363-15.824c.019,0,.041,0,.06-.006q2.478,7.9,4.968,15.827H391Z" transform="translate(-262.679 -0.142)" fill="#eb2027" fill-rule="evenodd"/>
        <path id="Path_227654" data-name="Path 227654" d="M92.166,45.289V23.72H84.33v.8h.01v.006h3.354V45.289H84.33v.8H95.568v-.8Z" transform="translate(-57.491 -16.171)" fill-rule="evenodd"/>
        <path id="Path_227655" data-name="Path 227655" d="M93.31,2.759a2.759,2.759,0,1,1,5.519,0,2.76,2.76,0,0,1-5.519,0Z" transform="translate(-63.613 0)"/>
        <path id="Path_227656" data-name="Path 227656" d="M354.78,2.759a2.759,2.759,0,0,1,5.519,0,2.76,2.76,0,0,1-5.519,0Z" transform="translate(-241.865 0)"/>
        <path id="Path_227657" data-name="Path 227657" d="M303.407,24.893v-.016a4.283,4.283,0,0,0-.458-1.827,4.32,4.32,0,0,0-1.5-1.649,4.119,4.119,0,0,0-1.868-.656,6.275,6.275,0,0,0-2.68.321,5.548,5.548,0,0,0-1.505.866,7.624,7.624,0,0,0-1.4,1.512,12.482,12.482,0,0,0-1.26,2.263c-.013.025-.022.054-.035.08s-.022.038-.032.06l-.067-.019V21.672H284.75v.8h3.37v20.78h-3.37v.8h11.238v-.8h-3.377v-.251q0-7.414,0-14.825a.4.4,0,0,1,.006-.092,10.452,10.452,0,0,1,.894-2.384,9.583,9.583,0,0,1,1.283-1.881,7.52,7.52,0,0,1,1.477-1.311,6.017,6.017,0,0,1,.531-.318,2.334,2.334,0,0,1,.949-.274,1.161,1.161,0,0,1,.783.181,1.925,1.925,0,0,1,.745,1.343,1.492,1.492,0,0,1-.111.745c-.216.426-.563.773-.8,1.19a2.4,2.4,0,0,0,.43,2.9,2.635,2.635,0,0,0,2.842.28,3.431,3.431,0,0,0,1.744-2.861A5.937,5.937,0,0,0,303.407,24.893Z" transform="translate(-194.124 -14.126)" fill-rule="evenodd"/>
      </g>
    </g>
  </g>
</svg>
