<svg id="Group_415884" data-name="Group 415884" xmlns="http://www.w3.org/2000/svg" width="257.571" height="205.252" viewBox="0 0 257.571 205.252">
  <g id="Group_415878" data-name="Group 415878">
    <path id="Path_227680" data-name="Path 227680" d="M140.873,716.89c6.681,0,12.073,45.155,12.073,51.8a12.073,12.073,0,0,1-24.146,0c0-6.642,5.392-51.8,12.073-51.8Z" transform="translate(-106.746 -594.142)" fill="#ace1d3"/>
    <path id="Path_227681" data-name="Path 227681" d="M132.824,768.687c0-5.959,4.342-42.907,10.061-50.437a2.778,2.778,0,0,0-2.012-1.359c-6.681,0-12.073,45.155-12.073,51.8a11.9,11.9,0,0,0,14.085,11.873,12.029,12.029,0,0,1-10.061-11.873Z" transform="translate(-106.746 -594.142)" fill="#fff"/>
    <path id="Path_227682" data-name="Path 227682" d="M1245.593,716.89c6.681,0,12.073,45.155,12.073,51.8a12.073,12.073,0,0,1-24.146,0c0-6.642,5.392-51.8,12.073-51.8Z" transform="translate(-1022.313 -594.142)" fill="#ace1d3"/>
    <path id="Path_227683" data-name="Path 227683" d="M1237.544,768.687c0-5.959,4.342-42.907,10.061-50.437a2.781,2.781,0,0,0-2.012-1.359c-6.681,0-12.073,45.155-12.073,51.8a11.9,11.9,0,0,0,14.085,11.873,12.029,12.029,0,0,1-10.061-11.873Z" transform="translate(-1022.313 -594.142)" fill="#fff"/>
    <path id="Path_227684" data-name="Path 227684" d="M496.758,458.34,533.7,583.1H420.25L457.236,458.34h39.522Z" transform="translate(-348.293 -379.861)" fill="#ace1d3"/>
    <path id="Path_227685" data-name="Path 227685" d="M460.9,458.34h-3.662L420.25,583.1H428.3L465.285,458.34Z" transform="translate(-348.293 -379.861)" fill="#fff"/>
    <path id="Path_227686" data-name="Path 227686" d="M520.968,11.75h52.319a16.094,16.094,0,0,1,16.1,16.1V35.9H504.87V27.848a16.094,16.094,0,0,1,16.1-16.1Zm20.122,14.087a4.024,4.024,0,1,0-8.047,0c0,2.212,1.812,6.037,4.024,6.037s4.024-3.825,4.024-6.037Zm16.1,6.037c2.212,0,4.024-3.825,4.024-6.037a4.024,4.024,0,1,0-8.047,0c0,2.212,1.811,6.037,4.024,6.037Z" transform="translate(-418.424 -9.738)" fill="#ace1d3"/>
    <path id="Path_227687" data-name="Path 227687" d="M324.028,172.9H107.906a19.509,19.509,0,0,1-2.616-4.024c20.122-8.049,68.417-16.1,68.417-16.1h84.516s48.3,8.049,68.417,16.1a19.562,19.562,0,0,1-2.613,4.024Z" transform="translate(-87.262 -126.62)" fill="#fff"/>
    <path id="Path_227688" data-name="Path 227688" d="M120.57,270.3H336.691c-6.08,7.767-24.752,24.148-73.852,24.148H194.42c-49.1,0-67.774-16.381-73.85-24.148ZM190.4,286.4a4.024,4.024,0,1,0-4.024-4.024A4.037,4.037,0,0,0,190.4,286.4Zm38.232,0a4.024,4.024,0,1,0-4.024-4.024,4.037,4.037,0,0,0,4.024,4.024Zm38.232,0a4.024,4.024,0,1,0-4.024-4.024,4.037,4.037,0,0,0,4.024,4.024Z" transform="translate(-99.926 -224.018)" fill="#ace1d3"/>
    <path id="Path_227689" data-name="Path 227689" d="M96.03,161.143a2.011,2.011,0,0,1-.747-3.878c20.093-8.037,66.854-15.886,68.833-16.217a2.012,2.012,0,1,1,.659,3.969c-.479.079-48.311,8.1-68,15.98a1.97,1.97,0,0,1-.747.146Z" transform="translate(-77.92 -116.874)" fill="#2fb491"/>
    <path id="Path_227690" data-name="Path 227690" d="M172.5,267.231c-64.972,0-77.8-28.192-78.316-29.39a2.012,2.012,0,0,1,3.695-1.6c.149.334,12.683,26.961,74.621,26.961a2.013,2.013,0,0,1,0,4.025Z" transform="translate(-77.918 -194.79)" fill="#2fb491"/>
    <path id="Path_227691" data-name="Path 227691" d="M1057.625,161.137a2,2,0,0,1-.746-.146c-19.691-7.876-67.522-15.9-68-15.98a2.012,2.012,0,1,1,.661-3.969c1.981.33,48.742,8.179,68.833,16.217a2.01,2.01,0,0,1-.747,3.878Z" transform="translate(-818.164 -116.867)" fill="#2fb491"/>
    <path id="Path_227692" data-name="Path 227692" d="M942.2,267.232a2.012,2.012,0,0,1,0-4.024c62.346,0,74.5-26.682,74.619-26.954a2.01,2.01,0,1,1,3.693,1.587c-.509,1.2-13.338,29.39-78.312,29.39Z" transform="translate(-779.208 -194.791)" fill="#2fb491"/>
    <path id="Path_227693" data-name="Path 227693" d="M580.128,145.054H495.612a2.012,2.012,0,1,1,0-4.024h84.516a2.012,2.012,0,1,1,0,4.024Z" transform="translate(-409.084 -116.882)" fill="#2fb491"/>
    <path id="Path_227694" data-name="Path 227694" d="M611.039,403.6H542.622a2.012,2.012,0,0,1,0-4.024h68.417a2.012,2.012,0,1,1,0,4.024Z" transform="translate(-448.045 -331.163)" fill="#2fb491"/>
    <path id="Path_227695" data-name="Path 227695" d="M363.755,262.584h-197.2a2.012,2.012,0,1,1,0-4.024h197.2a2.012,2.012,0,1,1,0,4.024Z" transform="translate(-136.367 -214.288)" fill="#2fb491"/>
    <path id="Path_227696" data-name="Path 227696" d="M495.612,20.122A2.012,2.012,0,0,1,493.6,18.11,18.13,18.13,0,0,1,511.71,0a2.012,2.012,0,1,1,0,4.024A14.1,14.1,0,0,0,497.625,18.11a2.011,2.011,0,0,1-2.014,2.012Z" transform="translate(-409.084)" fill="#2fb491"/>
    <path id="Path_227697" data-name="Path 227697" d="M911.3,20.122a2.011,2.011,0,0,1-2.012-2.012A14.1,14.1,0,0,0,895.2,4.024,2.012,2.012,0,0,1,895.2,0a18.13,18.13,0,0,1,18.11,18.11,2.01,2.01,0,0,1-2.012,2.012Z" transform="translate(-740.255)" fill="#2fb491"/>
    <path id="Path_227698" data-name="Path 227698" d="M641.951,4.024H589.632a2.012,2.012,0,0,1,0-4.024h52.319a2.012,2.012,0,1,1,0,4.024Z" transform="translate(-487.006)" fill="#2fb491"/>
    <path id="Path_227699" data-name="Path 227699" d="M499.637,309.577a2.012,2.012,0,1,0,2.012,2.012,2.015,2.015,0,0,0-2.012-2.012Zm0,8.048a6.037,6.037,0,1,1,6.037-6.037,6.044,6.044,0,0,1-6.037,6.037Z" transform="translate(-409.084 -253.233)" fill="#2fb491"/>
    <path id="Path_227700" data-name="Path 227700" d="M722.927,309.577a2.012,2.012,0,1,0,2.012,2.012,2.015,2.015,0,0,0-2.012-2.012Zm0,8.048a6.037,6.037,0,1,1,6.037-6.037,6.044,6.044,0,0,1-6.037,6.037Z" transform="translate(-594.142 -253.233)" fill="#2fb491"/>
    <path id="Path_227701" data-name="Path 227701" d="M946.227,309.577a2.012,2.012,0,1,0,2.012,2.012,2.016,2.016,0,0,0-2.012-2.012Zm0,8.048a6.037,6.037,0,1,1,6.037-6.037,6.044,6.044,0,0,1-6.037,6.037Z" transform="translate(-779.208 -253.233)" fill="#2fb491"/>
    <path id="Path_227702" data-name="Path 227702" d="M495.612,102.077a2.012,2.012,0,0,1-2.012-2.012V96.042a2.013,2.013,0,0,1,4.025,0v4.024a2.012,2.012,0,0,1-2.014,2.012Z" transform="translate(-409.084 -77.93)" fill="#2fb491"/>
    <path id="Path_227703" data-name="Path 227703" d="M989.212,102.077a2.011,2.011,0,0,1-2.012-2.012V96.042a2.012,2.012,0,0,1,4.024,0v4.024a2.011,2.011,0,0,1-2.012,2.012Z" transform="translate(-818.168 -77.93)" fill="#2fb491"/>
    <path id="Path_227704" data-name="Path 227704" d="M425.1,606.3a2.068,2.068,0,0,1-.572-.082,2.012,2.012,0,0,1-1.358-2.5l32.2-108.663a2.012,2.012,0,1,1,3.859,1.14l-32.2,108.663a2.016,2.016,0,0,1-1.93,1.442Z" transform="translate(-350.642 -409.095)" fill="#2fb491"/>
    <path id="Path_227705" data-name="Path 227705" d="M903.878,606.3a2.016,2.016,0,0,1-1.93-1.442l-32.2-108.663a2.012,2.012,0,1,1,3.859-1.14l32.2,108.663a2.014,2.014,0,0,1-1.356,2.5,2.082,2.082,0,0,1-.574.082Z" transform="translate(-720.761 -409.095)" fill="#2fb491"/>
    <path id="Path_227706" data-name="Path 227706" d="M546.647,431.129a6.045,6.045,0,0,1-6.037-6.037,2.012,2.012,0,1,1,4.024,0,2.015,2.015,0,0,0,2.012,2.012,2.013,2.013,0,0,1,0,4.025Z" transform="translate(-448.045 -350.639)" fill="#2fb491"/>
    <path id="Path_227707" data-name="Path 227707" d="M918.7,431.129a2.013,2.013,0,0,1,0-4.025,2.016,2.016,0,0,0,2.012-2.012,2.012,2.012,0,0,1,4.024,0,6.042,6.042,0,0,1-6.036,6.037Z" transform="translate(-759.731 -350.639)" fill="#2fb491"/>
    <path id="Path_227708" data-name="Path 227708" d="M626.5,450.605H566.132a2.013,2.013,0,0,1,0-4.025H626.5a2.013,2.013,0,0,1,0,4.025Z" transform="translate(-467.529 -370.115)" fill="#2fb491"/>
    <path id="Path_227709" data-name="Path 227709" d="M648.392,440.867a2.011,2.011,0,0,1-2.012-2.012v-2.014a2.012,2.012,0,1,1,4.024,0v2.014a2.01,2.01,0,0,1-2.012,2.012Z" transform="translate(-535.705 -360.377)" fill="#2fb491"/>
    <path id="Path_227710" data-name="Path 227710" d="M601.382,440.867a2.011,2.011,0,0,1-2.012-2.012v-2.014a2.012,2.012,0,1,1,4.024,0v2.014a2.011,2.011,0,0,1-2.012,2.012Z" transform="translate(-496.744 -360.377)" fill="#2fb491"/>
    <path id="Path_227711" data-name="Path 227711" d="M695.4,440.867a2.011,2.011,0,0,1-2.012-2.012v-2.014a2.012,2.012,0,1,1,4.024,0v2.014a2.011,2.011,0,0,1-2.012,2.012Z" transform="translate(-574.665 -360.377)" fill="#2fb491"/>
    <path id="Path_227712" data-name="Path 227712" d="M742.412,440.867a2.011,2.011,0,0,1-2.012-2.012v-2.014a2.012,2.012,0,1,1,4.024,0v2.014a2.011,2.011,0,0,1-2.012,2.012Z" transform="translate(-613.626 -360.377)" fill="#2fb491"/>
    <path id="Path_227713" data-name="Path 227713" d="M789.422,440.867a2.012,2.012,0,0,1-2.012-2.012v-2.014a2.012,2.012,0,1,1,4.024,0v2.014a2.011,2.011,0,0,1-2.012,2.012Z" transform="translate(-652.587 -360.377)" fill="#2fb491"/>
    <path id="Path_227714" data-name="Path 227714" d="M836.432,440.867a2.012,2.012,0,0,1-2.012-2.012v-2.014a2.012,2.012,0,1,1,4.024,0v2.014a2.011,2.011,0,0,1-2.012,2.012Z" transform="translate(-691.548 -360.377)" fill="#2fb491"/>
    <path id="Path_227715" data-name="Path 227715" d="M883.442,440.867a2.011,2.011,0,0,1-2.012-2.012v-2.014a2.012,2.012,0,1,1,4.024,0v2.014a2.011,2.011,0,0,1-2.012,2.012Z" transform="translate(-730.509 -360.377)" fill="#2fb491"/>
    <path id="Path_227716" data-name="Path 227716" d="M781.687,62.784a2.016,2.016,0,0,0-2.012,2.014c0,1.651,1.359,3.926,2.012,4.024.652-.1,2.012-2.375,2.012-4.024a2.018,2.018,0,0,0-2.012-2.014Zm0,10.063c-3.632,0-6.037-4.846-6.037-8.049a6.037,6.037,0,1,1,12.075,0c0,3.2-2.406,8.049-6.037,8.049Z" transform="translate(-642.841 -48.699)" fill="#2fb491"/>
    <path id="Path_227717" data-name="Path 227717" d="M801.172,125.577a2.012,2.012,0,0,1-2.012-2.012v-4.024a2.012,2.012,0,0,1,4.024,0v4.024a2.01,2.01,0,0,1-2.012,2.012Z" transform="translate(-662.325 -97.406)" fill="#2fb491"/>
    <path id="Path_227718" data-name="Path 227718" d="M664.167,62.784a2.015,2.015,0,0,0-2.012,2.014c0,1.651,1.359,3.926,2.012,4.024.652-.1,2.012-2.375,2.012-4.024a2.016,2.016,0,0,0-2.012-2.014Zm0,10.063c-3.63,0-6.037-4.846-6.037-8.049a6.037,6.037,0,0,1,12.075,0c0,3.2-2.407,8.049-6.037,8.049Z" transform="translate(-545.443 -48.699)" fill="#2fb491"/>
    <path id="Path_227719" data-name="Path 227719" d="M683.652,125.577a2.011,2.011,0,0,1-2.012-2.012v-4.024a2.012,2.012,0,1,1,4.024,0v4.024a2.01,2.01,0,0,1-2.012,2.012Z" transform="translate(-564.927 -97.406)" fill="#2fb491"/>
    <path id="Path_227720" data-name="Path 227720" d="M683.652,729.288a2.011,2.011,0,0,1-2.012-2.012V707.152a2.012,2.012,0,1,1,4.024,0v20.122a2.011,2.011,0,0,1-2.012,2.014Z" transform="translate(-564.927 -584.404)" fill="#2fb491"/>
    <path id="Path_227721" data-name="Path 227721" d="M754.192,576.831a2.012,2.012,0,0,1-2.012-2.012v-32.2a2.012,2.012,0,0,1,4.024,0v32.2a2.012,2.012,0,0,1-2.012,2.012Z" transform="translate(-623.389 -448.045)" fill="#2fb491"/>
    <path id="Path_227722" data-name="Path 227722" d="M824.682,740.723a2.011,2.011,0,0,1-2.012-2.012v-8.049a2.012,2.012,0,0,1,4.024,0v8.049a2.011,2.011,0,0,1-2.012,2.012Z" transform="translate(-681.81 -603.888)" fill="#2fb491"/>
    <path id="Path_227723" data-name="Path 227723" d="M255.559,1179.264H2.012a2.012,2.012,0,1,1,0-4.024H255.559a2.012,2.012,0,1,1,0,4.024Z" transform="translate(0 -974.012)" fill="#2fb491"/>
    <path id="Path_227724" data-name="Path 227724" d="M1294.772,956.934a2.011,2.011,0,0,1-2.012-2.012V918.7a2.012,2.012,0,1,1,4.024,0v36.221a2.011,2.011,0,0,1-2.012,2.012Z" transform="translate(-1071.409 -759.731)" fill="#2fb491"/>
    <path id="Path_227725" data-name="Path 227725" d="M1236.182,709.141c-1.687.913-9.909,29.344-9.909,49.828a10.061,10.061,0,0,0,20.122,0c0-20.482-8.222-48.917-10.213-49.828Zm.152,63.912a14.1,14.1,0,0,1-14.085-14.085c0-.539,3.938-53.829,14.085-53.829s14.085,53.29,14.085,53.829a14.1,14.1,0,0,1-14.085,14.085Z" transform="translate(-1012.972 -584.404)" fill="#2fb491"/>
    <path id="Path_227726" data-name="Path 227726" d="M190.052,956.934a2.011,2.011,0,0,1-2.012-2.012V918.7a2.012,2.012,0,1,1,4.024,0v36.221a2.011,2.011,0,0,1-2.012,2.012Z" transform="translate(-155.843 -759.731)" fill="#2fb491"/>
    <path id="Path_227727" data-name="Path 227727" d="M131.454,709.141c-1.688.913-9.909,29.344-9.909,49.828a10.061,10.061,0,0,0,20.122,0c0-20.482-8.22-48.917-10.213-49.828Zm.152,63.912a14.1,14.1,0,0,1-14.087-14.085c0-.539,3.938-53.829,14.087-53.829s14.085,53.29,14.085,53.829a14.1,14.1,0,0,1-14.085,14.085Z" transform="translate(-97.398 -584.404)" fill="#2fb491"/>
  </g>
  <g id="Group_415883" data-name="Group 415883" transform="translate(96.576 139.694)">
    <path id="Path_227728" data-name="Path 227728" d="M882.114,858.123a2.869,2.869,0,0,1-2.128-.815c-.606-.637-1.461-2.012-1.873-6.6a1.37,1.37,0,0,1,1.324-1.493,9.181,9.181,0,0,1,4.96,1.2h0c2.389,1.389,2.772,2.885,2.674,3.9a4.606,4.606,0,0,1-3.306,3.513A5.063,5.063,0,0,1,882.114,858.123Zm-.19-2.76a1.915,1.915,0,0,0,.947-.125,2.212,2.212,0,0,0,1.473-1.19c.012-.122-.207-.613-1.325-1.262a6.061,6.061,0,0,0-2-.724A8.021,8.021,0,0,0,881.924,855.363Zm-.041-.012Z" transform="translate(-824.33 -843.501)" fill="#2fb491"/>
    <path id="Path_227729" data-name="Path 227729" d="M846.828,831.792a4.141,4.141,0,0,1-3.073-1.223c-.991-1.039-1.669-2.957-2.06-5.84a16.354,16.354,0,0,0-3.08,1.253,1.369,1.369,0,0,1-1.627-.271,5.309,5.309,0,0,0-.854-.726,1.371,1.371,0,0,1,.1-2.332,22.479,22.479,0,0,1,2.591-1.229,17.805,17.805,0,0,1,2.527-.8c-.068-1.75-.041-3.128-.034-3.433a1.37,1.37,0,0,1,1.368-1.336h.034l1.308.031a1.371,1.371,0,0,1,1.337,1.4c-.009.368-.027,1.5.031,3a10.224,10.224,0,0,1,4.371,1.346h0c1.351.786,3.579,2.5,3.318,5.156a4.9,4.9,0,0,1-1.586,3.058,7.253,7.253,0,0,1-2.6,1.567A6.353,6.353,0,0,1,846.828,831.792Zm-.188-4.07a1.915,1.915,0,0,0,.947-.125,2.213,2.213,0,0,0,1.473-1.19h0c.012-.122-.207-.611-1.325-1.262a6.06,6.06,0,0,0-2-.724A8.021,8.021,0,0,0,846.639,827.722Z" transform="translate(-789.045 -815.86)" fill="#2fb491"/>
    <path id="Path_227730" data-name="Path 227730" d="M572.923,909.471a1.362,1.362,0,0,1-.584-.13l-7.518-3.539a1.37,1.37,0,0,1,.716-2.6l9.532.937a1.37,1.37,0,0,1,.733,2.425,5.954,5.954,0,0,0-1.633,2.113,1.366,1.366,0,0,1-1.245.8Z" transform="translate(-564.034 -888.24)" fill="#2fb491"/>
    <path id="Path_227731" data-name="Path 227731" d="M674.2,995.033a1.357,1.357,0,0,1-.878-.32,25.61,25.61,0,0,0-2.222-1.7,1.369,1.369,0,0,1,1.519-2.279h0l0,0a27.685,27.685,0,0,1,2.409,1.834l.051.043h0a1.37,1.37,0,0,1-.88,2.419Z" transform="translate(-652.258 -960.602)" fill="#2fb491"/>
    <path id="Path_227732" data-name="Path 227732" d="M622.371,893.1A1.369,1.369,0,0,1,621,891.68l.065-1.724a15.174,15.174,0,0,0-1.673-6.272,17.179,17.179,0,0,0-2.139-3.3l-.692-.586-.051-.045a1.37,1.37,0,0,1,1.663-2.173l.315.217a6.213,6.213,0,0,0,.609-.51c1.558-1.484,2.079-3.575,1.137-4.563-.236-.24-1.56-.591-3.686-.358a8.654,8.654,0,0,0-4.481,1.543,1.546,1.546,0,0,0-.2.221,1.371,1.371,0,0,1-1.818.368c-1.058-.64-1.642-.459-3.5.271A25.3,25.3,0,0,1,603,875.936a1.591,1.591,0,0,1-.356.038c-1.589,0-4.1-1.957-4.127-1.979a3.12,3.12,0,0,1-.966-2.774c.12-.769.284-1.671.457-2.625.277-1.527.563-3.108.673-4.157a8.651,8.651,0,0,1,5.185-7.049,1.364,1.364,0,0,1,1.125.019l2.4,1.13a.429.429,0,0,0,.132.036.4.4,0,0,0,.437-.342c0-.007,0-.014,0-.019a1.369,1.369,0,0,1,1.721-1.2c2.077.56,4.782.331,8.039-.681a47.108,47.108,0,0,0,8.928-4.019c2.212-1.257,3.979-2.424,4.837-3.01a7.916,7.916,0,0,1,8.917,0,8.091,8.091,0,0,1,1.3,1.1,7.955,7.955,0,0,1,1.1,1.457l.074.125c.111.187.236.4.38.635.5.824.976,1.644,1.426,2.44a1.37,1.37,0,0,1-.791,1.984c-.354.108-.724.24-1.1.392a12.079,12.079,0,0,0-4.251,2.74c-.788.853-1.014,1.549-.887,1.863.31.769,3.163,1.269,6.89-.233a14.075,14.075,0,0,0,1.443-.671,1.37,1.37,0,0,1,1.952.777,17.521,17.521,0,0,1,.954,3.906c.491.661.966,1.368,1.409,2.1a23.976,23.976,0,0,1,3.467,10.573h0l.068,1.741a1.369,1.369,0,0,1-1.116,1.4l-4.029.755a1.371,1.371,0,0,1-1.622-1.293L647,879.369a16.434,16.434,0,0,0-.919-4.046,19.443,19.443,0,0,0-.772-1.89c-.212.123-.43.245-.637.36a15.519,15.519,0,0,1,.419,3,22.218,22.218,0,0,1-.546,5.791l0,.017c0,.01-.005.021-.007.029l-.431,1.69a1.369,1.369,0,0,1-1.6,1l-4.659-.945a1.371,1.371,0,0,1-1.056-1.681l.43-1.687a14.764,14.764,0,0,0,.363-2.649,13.44,13.44,0,0,0-.012-1.748l-1.127.553a44.322,44.322,0,0,1-4.3,1.94c.317.584.627,1.209.928,1.868a44.824,44.824,0,0,1,2.228,6.075l.467,1.69a1.37,1.37,0,0,1-.935,1.68l-3.962,1.161a1.368,1.368,0,0,1-1.7-.945l-.469-1.681c-.1-.378-.269-.916-.485-1.553a14.938,14.938,0,0,1,.19,2.615l-.067,1.746a1.37,1.37,0,0,1-1.363,1.318l-4.594.021ZM620.3,879.86a19.387,19.387,0,0,1,1.55,2.608,17.534,17.534,0,0,1,1.955,7.558v.021l-.012.31,1.851-.009.017-.433a17.2,17.2,0,0,0-1.4-6.555,20.524,20.524,0,0,0-1.544-3.031,1.371,1.371,0,0,1,1.021-2.084,5.447,5.447,0,0,1,.923-.036,3.462,3.462,0,0,0,.89-.125,1.369,1.369,0,0,1,1.32.471,17.088,17.088,0,0,1,2.108,3.455,41.272,41.272,0,0,1,2.353,6.21l.1.344,1.336-.392-.106-.384a42.086,42.086,0,0,0-2.08-5.674,23.668,23.668,0,0,0-1.635-3.037,1.369,1.369,0,0,1,.784-2.065,30.092,30.092,0,0,0,5.5-2.3c.82-.4,1.748-.861,2.8-1.351a1.369,1.369,0,0,1,1.9.865,13.114,13.114,0,0,1,.392,4.284,17.6,17.6,0,0,1-.443,3.18l-.074.293,1.972.4.11-.43a19.331,19.331,0,0,0,.474-5.032,11.748,11.748,0,0,0-.6-3.349,1.37,1.37,0,0,1,.652-1.668c.649-.342,2.188-1.216,2.524-1.449a1.37,1.37,0,0,1,2.1.349,22.392,22.392,0,0,1,1.633,3.613,18.5,18.5,0,0,1,1.07,4.837h0l.007.152,1.308-.245-.022-.56v-.027a21.249,21.249,0,0,0-3.077-9.243,22.64,22.64,0,0,0-1.288-1.916l-.2-.265a1.377,1.377,0,0,1-.269-.712,12.1,12.1,0,0,0-.4-2.186l-.24.1c-4.868,1.962-9.362,1.409-10.451-1.288-.579-1.445-.075-3.13,1.416-4.745a14.487,14.487,0,0,1,4.964-3.308c-.19-.322-.382-.647-.579-.971-.146-.241-.277-.462-.392-.657l-.077-.13a5.091,5.091,0,0,0-.724-.959,5.312,5.312,0,0,0-.854-.726h0a5.174,5.174,0,0,0-5.832,0c-.9.613-2.245,1.5-3.911,2.481a6.475,6.475,0,0,1-1.608,6.933,6.473,6.473,0,0,1-9.148-.219h0a6.413,6.413,0,0,1-1.048-1.461,17.835,17.835,0,0,1-7.138.611,3.138,3.138,0,0,1-2.923,1.392,3.223,3.223,0,0,1-1.024-.281l-1.812-.853a5.909,5.909,0,0,0-3.013,4.555c-.12,1.154-.416,2.786-.7,4.365-.169.938-.33,1.823-.447,2.561a.382.382,0,0,0,.116.336,11.041,11.041,0,0,0,2.2,1.238,23.469,23.469,0,0,0,2.983-1c1.594-.625,3.111-1.221,4.919-.551a11.582,11.582,0,0,1,5.8-2.026c1.31-.142,4.512-.308,5.943,1.193,2.034,2.133,1.495,5.839-1.229,8.436A8.589,8.589,0,0,1,620.3,879.86Zm-17.614-6.611Zm42.09-2.635Zm0,0Zm-24.43-11.748a3.735,3.735,0,0,0,6.334-3.447,50.8,50.8,0,0,1-6.676,3.031,3.757,3.757,0,0,0,.342.416Zm8.053,12.071c-.082,0-.163,0-.243-.005a3.153,3.153,0,0,1-2.8-1.589c-.9-1.769.377-4.089,2.96-5.4a6.766,6.766,0,0,1,3.3-.779,3.15,3.15,0,0,1,2.8,1.589c.9,1.769-.377,4.089-2.96,5.4h0A6.939,6.939,0,0,1,628.4,870.936Zm2.442-2.008Zm-3.026-.831a3.117,3.117,0,0,0,2.407-.39h0a1.279,1.279,0,1,0-2.407.39Z" transform="translate(-591.777 -842.436)" fill="#2fb491"/>
    <path id="Path_227733" data-name="Path 227733" d="M603.145,886.391a3.154,3.154,0,0,1-.832-.113h0a3.244,3.244,0,0,1-.962-.449l-8.419-5.868a1.37,1.37,0,0,1,1.144-2.445l9.893,2.7a3.148,3.148,0,0,1,2.216,3.8.481.481,0,0,1-.014.053h0a3.149,3.149,0,0,1-3.026,2.317Zm1.707-2.69Zm-1.818-.065a.4.4,0,0,0,.488-.264v0l.005-.019a.4.4,0,0,0-.281-.49L601,882.249l1.907,1.329a.456.456,0,0,0,.123.058Z" transform="translate(-587.498 -866.919)" fill="#2fb491"/>
    <g id="Group_415879" data-name="Group 415879" transform="translate(24.981 9.695)">
      <path id="Path_227734" data-name="Path 227734" d="M727.125,880.48a49.076,49.076,0,0,1-9.195,4.135,5.1,5.1,0,1,0,9.195-4.135Z" transform="translate(-716.56 -879.11)" fill="#fff"/>
      <path id="Path_227735" data-name="Path 227735" d="M716.225,883.111c-.053,0-.106,0-.161,0a6.472,6.472,0,0,1-6.085-4.758,1.368,1.368,0,0,1,.913-1.671,46.97,46.97,0,0,0,8.928-4.02,1.37,1.37,0,0,1,1.82.442,6.472,6.472,0,0,1-5.414,10.01Zm-3.048-4.311a3.585,3.585,0,0,0,.344.416,3.735,3.735,0,0,0,6.334-3.447A51.033,51.033,0,0,1,713.177,878.8Z" transform="translate(-709.929 -872.482)" fill="#2fb491"/>
    </g>
    <g id="Group_415880" data-name="Group 415880" transform="translate(43.097 11.926)">
      <path id="Path_227736" data-name="Path 227736" d="M823.891,900.343c.769,1.907,4.652,2.149,8.672.529a14.93,14.93,0,0,0,1.582-.736h0A43.161,43.161,0,0,0,831,893.53h0c-.4.123-.806.267-1.212.432C825.764,895.573,823.125,898.432,823.891,900.343Z" transform="translate(-822.385 -892.157)" fill="#fff"/>
      <path id="Path_227737" data-name="Path 227737" d="M820.928,896.668c-2.438,0-4.308-.846-4.959-2.459a.005.005,0,0,0,0,0c-.579-1.442-.075-3.126,1.418-4.743a14.658,14.658,0,0,1,5.243-3.423c.447-.18.892-.337,1.32-.469a1.369,1.369,0,0,1,1.592.635,43.92,43.92,0,0,1,3.243,6.823,1.37,1.37,0,0,1-.639,1.662,16.875,16.875,0,0,1-1.726.8A14.951,14.951,0,0,1,820.928,896.668Zm-2.416-3.483c.315.772,3.166,1.271,6.89-.231.123-.05.247-.1.366-.152a42.988,42.988,0,0,0-2.051-4.245l-.065.026a12.08,12.08,0,0,0-4.251,2.74C818.613,892.173,818.387,892.87,818.512,893.185Z" transform="translate(-815.734 -885.511)" fill="#2fb491"/>
    </g>
    <g id="Group_415881" data-name="Group 415881" transform="translate(17.621 27.11)">
      <path id="Path_227738" data-name="Path 227738" d="M682.614,990.7a6.975,6.975,0,0,0,1.6-1.154c2.132-2.032,2.664-4.945,1.183-6.5s-7.965-.9-10.1,1.139a2.99,2.99,0,0,0-.36.407h0c.2.123.406.252.608.385a26.912,26.912,0,0,1,2.342,1.788c.669.562,1.363,1.171,2.1,1.823.51.454,1.034.914,1.58,1.387h0Z" transform="translate(-673.563 -980.822)" fill="#fff"/>
      <path id="Path_227739" data-name="Path 227739" d="M676,985.444a1.357,1.357,0,0,1-.776-.241l-1.036-.712a1.274,1.274,0,0,1-.134-.1c-.505-.437-1.027-.894-1.594-1.4-.784-.692-1.437-1.265-2.072-1.8a25.879,25.879,0,0,0-2.222-1.7c-.188-.127-.377-.245-.555-.353a1.369,1.369,0,0,1-.4-1.976,4.418,4.418,0,0,1,.526-.6,10.931,10.931,0,0,1,6.1-2.284c1.31-.142,4.512-.308,5.943,1.193,2.034,2.134,1.495,5.839-1.229,8.436a8.325,8.325,0,0,1-1.909,1.377A1.342,1.342,0,0,1,676,985.444Zm-.212-3.178.253.175a6.238,6.238,0,0,0,.61-.51c1.558-1.485,2.079-3.575,1.137-4.563-.236-.24-1.56-.591-3.687-.358a11.524,11.524,0,0,0-3.452.889c.461.344.952.736,1.5,1.193.661.553,1.327,1.139,2.128,1.846C674.813,981.419,675.306,981.852,675.786,982.266Z" transform="translate(-666.947 -974.192)" fill="#2fb491"/>
    </g>
    <g id="Group_415882" data-name="Group 415882" transform="translate(33.296 20.724)">
      <path id="Path_227740" data-name="Path 227740" d="M769,945.515c-1.827.926-2.883,2.519-2.356,3.556s2.435,1.132,4.262.205,2.883-2.519,2.356-3.556S770.828,944.59,769,945.515Z" transform="translate(-765.135 -943.511)" fill="#fff"/>
      <path id="Path_227741" data-name="Path 227741" d="M761.821,944.672c-.082,0-.163,0-.243-.005a3.153,3.153,0,0,1-2.8-1.589c-.9-1.769.377-4.089,2.96-5.4h0a6.784,6.784,0,0,1,3.3-.779,3.151,3.151,0,0,1,2.8,1.589c.9,1.769-.377,4.089-2.961,5.4A6.926,6.926,0,0,1,761.821,944.672Zm-.584-2.839a4.024,4.024,0,1,0,1.74-1.709h0A3.105,3.105,0,0,0,761.237,941.833Zm0,.043Z" transform="translate(-758.493 -936.897)" fill="#2fb491"/>
    </g>
  </g>
  <path id="Path_227742" data-name="Path 227742" d="M640.835,936.99a1.935,1.935,0,1,0,1.937,1.935A1.935,1.935,0,0,0,640.835,936.99Z" transform="translate(-529.505 -776.555)" fill="#2fb491"/>
</svg>
